<?xml version="1.0" encoding="utf-8" standalone="no"?>
<!DOCTYPE svg PUBLIC "-//W3C//DTD SVG 1.1//EN"
  "http://www.w3.org/Graphics/SVG/1.1/DTD/svg11.dtd">
<svg xmlns:xlink="http://www.w3.org/1999/xlink" width="360pt" height="360pt" viewBox="0 0 360 360" xmlns="http://www.w3.org/2000/svg" version="1.1">
 <metadata>
  <rdf:RDF xmlns:dc="http://purl.org/dc/elements/1.1/" xmlns:cc="http://creativecommons.org/ns#" xmlns:rdf="http://www.w3.org/1999/02/22-rdf-syntax-ns#">
   <cc:Work>
    <dc:type rdf:resource="http://purl.org/dc/dcmitype/StillImage"/>
    <dc:date>2026-02-25T19:07:09.218512</dc:date>
    <dc:format>image/svg+xml</dc:format>
    <dc:creator>
     <cc:Agent>
      <dc:title>Matplotlib v3.10.1, https://matplotlib.org/</dc:title>
     </cc:Agent>
    </dc:creator>
   </cc:Work>
  </rdf:RDF>
 </metadata>
 <defs>
  <style type="text/css">*{stroke-linejoin: round; stroke-linecap: butt}</style>
 </defs>
 <g id="figure_1">
  <g id="patch_1">
   <path d="M 0 360 
L 360 360 
L 360 0 
L 0 0 
z
" style="fill: #ffffff"/>
  </g>
  <g id="axes_1">
   <g id="patch_2">
    <path d="M 52.4 312.28 
L 339.705 312.28 
L 339.705 26.88 
L 52.4 26.88 
z
" style="fill: #ffffff"/>
   </g>
   <g id="matplotlib.axis_1">
    <g id="xtick_1">
     <g id="line2d_1">
      <path d="M 52.4 312.28 
L 52.4 26.88 
" clip-path="url(#p9e9df8b5ee)" style="fill: none; stroke: #808080; stroke-width: 0.8; stroke-linecap: square"/>
     </g>
     <g id="line2d_2">
      <defs>
       <path id="mf5f9c94c45" d="M 0 0 
L 0 3.5 
" style="stroke: #000000; stroke-width: 0.8"/>
      </defs>
      <g>
       <use xlink:href="#mf5f9c94c45" x="52.4" y="312.28" style="stroke: #000000; stroke-width: 0.8"/>
      </g>
     </g>
     <g id="text_1">
      <!-- −3 -->
      <g transform="translate(43.554688 328.398125) scale(0.12 -0.12)">
       <defs>
        <path id="DejaVuSans-2212" d="M 678 2272 
L 4684 2272 
L 4684 1741 
L 678 1741 
L 678 2272 
z
" transform="scale(0.015625)"/>
        <path id="DejaVuSans-33" d="M 2597 2516 
Q 3050 2419 3304 2112 
Q 3559 1806 3559 1356 
Q 3559 666 3084 287 
Q 2609 -91 1734 -91 
Q 1441 -91 1130 -33 
Q 819 25 488 141 
L 488 750 
Q 750 597 1062 519 
Q 1375 441 1716 441 
Q 2309 441 2620 675 
Q 2931 909 2931 1356 
Q 2931 1769 2642 2001 
Q 2353 2234 1838 2234 
L 1294 2234 
L 1294 2753 
L 1863 2753 
Q 2328 2753 2575 2939 
Q 2822 3125 2822 3475 
Q 2822 3834 2567 4026 
Q 2313 4219 1838 4219 
Q 1578 4219 1281 4162 
Q 984 4106 628 3988 
L 628 4550 
Q 988 4650 1302 4700 
Q 1616 4750 1894 4750 
Q 2613 4750 3031 4423 
Q 3450 4097 3450 3541 
Q 3450 3153 3228 2886 
Q 3006 2619 2597 2516 
z
" transform="scale(0.015625)"/>
       </defs>
       <use xlink:href="#DejaVuSans-2212"/>
       <use xlink:href="#DejaVuSans-33" transform="translate(83.789062 0)"/>
      </g>
     </g>
    </g>
    <g id="xtick_2">
     <g id="line2d_3">
      <path d="M 124.22625 312.28 
L 124.22625 26.88 
" clip-path="url(#p9e9df8b5ee)" style="fill: none; stroke: #808080; stroke-width: 0.8; stroke-linecap: square"/>
     </g>
     <g id="line2d_4">
      <g>
       <use xlink:href="#mf5f9c94c45" x="124.22625" y="312.28" style="stroke: #000000; stroke-width: 0.8"/>
      </g>
     </g>
     <g id="text_2">
      <!-- −2 -->
      <g transform="translate(115.380937 328.398125) scale(0.12 -0.12)">
       <defs>
        <path id="DejaVuSans-32" d="M 1228 531 
L 3431 531 
L 3431 0 
L 469 0 
L 469 531 
Q 828 903 1448 1529 
Q 2069 2156 2228 2338 
Q 2531 2678 2651 2914 
Q 2772 3150 2772 3378 
Q 2772 3750 2511 3984 
Q 2250 4219 1831 4219 
Q 1534 4219 1204 4116 
Q 875 4013 500 3803 
L 500 4441 
Q 881 4594 1212 4672 
Q 1544 4750 1819 4750 
Q 2544 4750 2975 4387 
Q 3406 4025 3406 3419 
Q 3406 3131 3298 2873 
Q 3191 2616 2906 2266 
Q 2828 2175 2409 1742 
Q 1991 1309 1228 531 
z
" transform="scale(0.015625)"/>
       </defs>
       <use xlink:href="#DejaVuSans-2212"/>
       <use xlink:href="#DejaVuSans-32" transform="translate(83.789062 0)"/>
      </g>
     </g>
    </g>
    <g id="xtick_3">
     <g id="line2d_5">
      <path d="M 196.0525 312.28 
L 196.0525 26.88 
" clip-path="url(#p9e9df8b5ee)" style="fill: none; stroke: #808080; stroke-width: 0.8; stroke-linecap: square"/>
     </g>
     <g id="line2d_6">
      <g>
       <use xlink:href="#mf5f9c94c45" x="196.0525" y="312.28" style="stroke: #000000; stroke-width: 0.8"/>
      </g>
     </g>
     <g id="text_3">
      <!-- −1 -->
      <g transform="translate(187.207187 328.398125) scale(0.12 -0.12)">
       <defs>
        <path id="DejaVuSans-31" d="M 794 531 
L 1825 531 
L 1825 4091 
L 703 3866 
L 703 4441 
L 1819 4666 
L 2450 4666 
L 2450 531 
L 3481 531 
L 3481 0 
L 794 0 
L 794 531 
z
" transform="scale(0.015625)"/>
       </defs>
       <use xlink:href="#DejaVuSans-2212"/>
       <use xlink:href="#DejaVuSans-31" transform="translate(83.789062 0)"/>
      </g>
     </g>
    </g>
    <g id="xtick_4">
     <g id="line2d_7">
      <path d="M 267.87875 312.28 
L 267.87875 26.88 
" clip-path="url(#p9e9df8b5ee)" style="fill: none; stroke: #808080; stroke-width: 0.8; stroke-linecap: square"/>
     </g>
     <g id="line2d_8">
      <g>
       <use xlink:href="#mf5f9c94c45" x="267.87875" y="312.28" style="stroke: #000000; stroke-width: 0.8"/>
      </g>
     </g>
     <g id="text_4">
      <!-- 0 -->
      <g transform="translate(264.06125 328.398125) scale(0.12 -0.12)">
       <defs>
        <path id="DejaVuSans-30" d="M 2034 4250 
Q 1547 4250 1301 3770 
Q 1056 3291 1056 2328 
Q 1056 1369 1301 889 
Q 1547 409 2034 409 
Q 2525 409 2770 889 
Q 3016 1369 3016 2328 
Q 3016 3291 2770 3770 
Q 2525 4250 2034 4250 
z
M 2034 4750 
Q 2819 4750 3233 4129 
Q 3647 3509 3647 2328 
Q 3647 1150 3233 529 
Q 2819 -91 2034 -91 
Q 1250 -91 836 529 
Q 422 1150 422 2328 
Q 422 3509 836 4129 
Q 1250 4750 2034 4750 
z
" transform="scale(0.015625)"/>
       </defs>
       <use xlink:href="#DejaVuSans-30"/>
      </g>
     </g>
    </g>
    <g id="xtick_5">
     <g id="line2d_9">
      <path d="M 339.705 312.28 
L 339.705 26.88 
" clip-path="url(#p9e9df8b5ee)" style="fill: none; stroke: #808080; stroke-width: 0.8; stroke-linecap: square"/>
     </g>
     <g id="line2d_10">
      <g>
       <use xlink:href="#mf5f9c94c45" x="339.705" y="312.28" style="stroke: #000000; stroke-width: 0.8"/>
      </g>
     </g>
     <g id="text_5">
      <!-- 1 -->
      <g transform="translate(335.8875 328.398125) scale(0.12 -0.12)">
       <use xlink:href="#DejaVuSans-31"/>
      </g>
     </g>
    </g>
    <g id="text_6">
     <!-- Re [GHz] -->
     <g transform="translate(169.5625 344.011875) scale(0.12 -0.12)">
      <defs>
       <path id="DejaVuSans-52" d="M 2841 2188 
Q 3044 2119 3236 1894 
Q 3428 1669 3622 1275 
L 4263 0 
L 3584 0 
L 2988 1197 
Q 2756 1666 2539 1819 
Q 2322 1972 1947 1972 
L 1259 1972 
L 1259 0 
L 628 0 
L 628 4666 
L 2053 4666 
Q 2853 4666 3247 4331 
Q 3641 3997 3641 3322 
Q 3641 2881 3436 2590 
Q 3231 2300 2841 2188 
z
M 1259 4147 
L 1259 2491 
L 2053 2491 
Q 2509 2491 2742 2702 
Q 2975 2913 2975 3322 
Q 2975 3731 2742 3939 
Q 2509 4147 2053 4147 
L 1259 4147 
z
" transform="scale(0.015625)"/>
       <path id="DejaVuSans-65" d="M 3597 1894 
L 3597 1613 
L 953 1613 
Q 991 1019 1311 708 
Q 1631 397 2203 397 
Q 2534 397 2845 478 
Q 3156 559 3463 722 
L 3463 178 
Q 3153 47 2828 -22 
Q 2503 -91 2169 -91 
Q 1331 -91 842 396 
Q 353 884 353 1716 
Q 353 2575 817 3079 
Q 1281 3584 2069 3584 
Q 2775 3584 3186 3129 
Q 3597 2675 3597 1894 
z
M 3022 2063 
Q 3016 2534 2758 2815 
Q 2500 3097 2075 3097 
Q 1594 3097 1305 2825 
Q 1016 2553 972 2059 
L 3022 2063 
z
" transform="scale(0.015625)"/>
       <path id="DejaVuSans-20" transform="scale(0.015625)"/>
       <path id="DejaVuSans-5b" d="M 550 4863 
L 1875 4863 
L 1875 4416 
L 1125 4416 
L 1125 -397 
L 1875 -397 
L 1875 -844 
L 550 -844 
L 550 4863 
z
" transform="scale(0.015625)"/>
       <path id="DejaVuSans-47" d="M 3809 666 
L 3809 1919 
L 2778 1919 
L 2778 2438 
L 4434 2438 
L 4434 434 
Q 4069 175 3628 42 
Q 3188 -91 2688 -91 
Q 1594 -91 976 548 
Q 359 1188 359 2328 
Q 359 3472 976 4111 
Q 1594 4750 2688 4750 
Q 3144 4750 3555 4637 
Q 3966 4525 4313 4306 
L 4313 3634 
Q 3963 3931 3569 4081 
Q 3175 4231 2741 4231 
Q 1884 4231 1454 3753 
Q 1025 3275 1025 2328 
Q 1025 1384 1454 906 
Q 1884 428 2741 428 
Q 3075 428 3337 486 
Q 3600 544 3809 666 
z
" transform="scale(0.015625)"/>
       <path id="DejaVuSans-48" d="M 628 4666 
L 1259 4666 
L 1259 2753 
L 3553 2753 
L 3553 4666 
L 4184 4666 
L 4184 0 
L 3553 0 
L 3553 2222 
L 1259 2222 
L 1259 0 
L 628 0 
L 628 4666 
z
" transform="scale(0.015625)"/>
       <path id="DejaVuSans-7a" d="M 353 3500 
L 3084 3500 
L 3084 2975 
L 922 459 
L 3084 459 
L 3084 0 
L 275 0 
L 275 525 
L 2438 3041 
L 353 3041 
L 353 3500 
z
" transform="scale(0.015625)"/>
       <path id="DejaVuSans-5d" d="M 1947 4863 
L 1947 -844 
L 622 -844 
L 622 -397 
L 1369 -397 
L 1369 4416 
L 622 4416 
L 622 4863 
L 1947 4863 
z
" transform="scale(0.015625)"/>
      </defs>
      <use xlink:href="#DejaVuSans-52"/>
      <use xlink:href="#DejaVuSans-65" transform="translate(64.982422 0)"/>
      <use xlink:href="#DejaVuSans-20" transform="translate(126.505859 0)"/>
      <use xlink:href="#DejaVuSans-5b" transform="translate(158.292969 0)"/>
      <use xlink:href="#DejaVuSans-47" transform="translate(197.306641 0)"/>
      <use xlink:href="#DejaVuSans-48" transform="translate(274.796875 0)"/>
      <use xlink:href="#DejaVuSans-7a" transform="translate(349.992188 0)"/>
      <use xlink:href="#DejaVuSans-5d" transform="translate(402.482422 0)"/>
     </g>
    </g>
   </g>
   <g id="matplotlib.axis_2">
    <g id="ytick_1">
     <g id="line2d_11">
      <path d="M 52.4 312.28 
L 339.705 312.28 
" clip-path="url(#p9e9df8b5ee)" style="fill: none; stroke: #808080; stroke-width: 0.8; stroke-linecap: square"/>
     </g>
     <g id="line2d_12">
      <defs>
       <path id="m8de2e41453" d="M 0 0 
L -3.5 0 
" style="stroke: #000000; stroke-width: 0.8"/>
      </defs>
      <g>
       <use xlink:href="#m8de2e41453" x="52.4" y="312.28" style="stroke: #000000; stroke-width: 0.8"/>
      </g>
     </g>
     <g id="text_7">
      <!-- −4 -->
      <g transform="translate(27.709375 316.839063) scale(0.12 -0.12)">
       <defs>
        <path id="DejaVuSans-34" d="M 2419 4116 
L 825 1625 
L 2419 1625 
L 2419 4116 
z
M 2253 4666 
L 3047 4666 
L 3047 1625 
L 3713 1625 
L 3713 1100 
L 3047 1100 
L 3047 0 
L 2419 0 
L 2419 1100 
L 313 1100 
L 313 1709 
L 2253 4666 
z
" transform="scale(0.015625)"/>
       </defs>
       <use xlink:href="#DejaVuSans-2212"/>
       <use xlink:href="#DejaVuSans-34" transform="translate(83.789062 0)"/>
      </g>
     </g>
    </g>
    <g id="ytick_2">
     <g id="line2d_13">
      <path d="M 52.4 276.605 
L 339.705 276.605 
" clip-path="url(#p9e9df8b5ee)" style="fill: none; stroke: #808080; stroke-width: 0.8; stroke-linecap: square"/>
     </g>
     <g id="line2d_14">
      <g>
       <use xlink:href="#m8de2e41453" x="52.4" y="276.605" style="stroke: #000000; stroke-width: 0.8"/>
      </g>
     </g>
     <g id="text_8">
      <!-- −3 -->
      <g transform="translate(27.709375 281.164062) scale(0.12 -0.12)">
       <use xlink:href="#DejaVuSans-2212"/>
       <use xlink:href="#DejaVuSans-33" transform="translate(83.789062 0)"/>
      </g>
     </g>
    </g>
    <g id="ytick_3">
     <g id="line2d_15">
      <path d="M 52.4 240.93 
L 339.705 240.93 
" clip-path="url(#p9e9df8b5ee)" style="fill: none; stroke: #808080; stroke-width: 0.8; stroke-linecap: square"/>
     </g>
     <g id="line2d_16">
      <g>
       <use xlink:href="#m8de2e41453" x="52.4" y="240.93" style="stroke: #000000; stroke-width: 0.8"/>
      </g>
     </g>
     <g id="text_9">
      <!-- −2 -->
      <g transform="translate(27.709375 245.489062) scale(0.12 -0.12)">
       <use xlink:href="#DejaVuSans-2212"/>
       <use xlink:href="#DejaVuSans-32" transform="translate(83.789062 0)"/>
      </g>
     </g>
    </g>
    <g id="ytick_4">
     <g id="line2d_17">
      <path d="M 52.4 205.255 
L 339.705 205.255 
" clip-path="url(#p9e9df8b5ee)" style="fill: none; stroke: #808080; stroke-width: 0.8; stroke-linecap: square"/>
     </g>
     <g id="line2d_18">
      <g>
       <use xlink:href="#m8de2e41453" x="52.4" y="205.255" style="stroke: #000000; stroke-width: 0.8"/>
      </g>
     </g>
     <g id="text_10">
      <!-- −1 -->
      <g transform="translate(27.709375 209.814063) scale(0.12 -0.12)">
       <use xlink:href="#DejaVuSans-2212"/>
       <use xlink:href="#DejaVuSans-31" transform="translate(83.789062 0)"/>
      </g>
     </g>
    </g>
    <g id="ytick_5">
     <g id="line2d_19">
      <path d="M 52.4 169.58 
L 339.705 169.58 
" clip-path="url(#p9e9df8b5ee)" style="fill: none; stroke: #808080; stroke-width: 0.8; stroke-linecap: square"/>
     </g>
     <g id="line2d_20">
      <g>
       <use xlink:href="#m8de2e41453" x="52.4" y="169.58" style="stroke: #000000; stroke-width: 0.8"/>
      </g>
     </g>
     <g id="text_11">
      <!-- 0 -->
      <g transform="translate(37.765 174.139062) scale(0.12 -0.12)">
       <use xlink:href="#DejaVuSans-30"/>
      </g>
     </g>
    </g>
    <g id="ytick_6">
     <g id="line2d_21">
      <path d="M 52.4 133.905 
L 339.705 133.905 
" clip-path="url(#p9e9df8b5ee)" style="fill: none; stroke: #808080; stroke-width: 0.8; stroke-linecap: square"/>
     </g>
     <g id="line2d_22">
      <g>
       <use xlink:href="#m8de2e41453" x="52.4" y="133.905" style="stroke: #000000; stroke-width: 0.8"/>
      </g>
     </g>
     <g id="text_12">
      <!-- 1 -->
      <g transform="translate(37.765 138.464062) scale(0.12 -0.12)">
       <use xlink:href="#DejaVuSans-31"/>
      </g>
     </g>
    </g>
    <g id="ytick_7">
     <g id="line2d_23">
      <path d="M 52.4 98.23 
L 339.705 98.23 
" clip-path="url(#p9e9df8b5ee)" style="fill: none; stroke: #808080; stroke-width: 0.8; stroke-linecap: square"/>
     </g>
     <g id="line2d_24">
      <g>
       <use xlink:href="#m8de2e41453" x="52.4" y="98.23" style="stroke: #000000; stroke-width: 0.8"/>
      </g>
     </g>
     <g id="text_13">
      <!-- 2 -->
      <g transform="translate(37.765 102.789062) scale(0.12 -0.12)">
       <use xlink:href="#DejaVuSans-32"/>
      </g>
     </g>
    </g>
    <g id="ytick_8">
     <g id="line2d_25">
      <path d="M 52.4 62.555 
L 339.705 62.555 
" clip-path="url(#p9e9df8b5ee)" style="fill: none; stroke: #808080; stroke-width: 0.8; stroke-linecap: square"/>
     </g>
     <g id="line2d_26">
      <g>
       <use xlink:href="#m8de2e41453" x="52.4" y="62.555" style="stroke: #000000; stroke-width: 0.8"/>
      </g>
     </g>
     <g id="text_14">
      <!-- 3 -->
      <g transform="translate(37.765 67.114062) scale(0.12 -0.12)">
       <use xlink:href="#DejaVuSans-33"/>
      </g>
     </g>
    </g>
    <g id="ytick_9">
     <g id="line2d_27">
      <path d="M 52.4 26.88 
L 339.705 26.88 
" clip-path="url(#p9e9df8b5ee)" style="fill: none; stroke: #808080; stroke-width: 0.8; stroke-linecap: square"/>
     </g>
     <g id="line2d_28">
      <g>
       <use xlink:href="#m8de2e41453" x="52.4" y="26.88" style="stroke: #000000; stroke-width: 0.8"/>
      </g>
     </g>
     <g id="text_15">
      <!-- 4 -->
      <g transform="translate(37.765 31.439062) scale(0.12 -0.12)">
       <use xlink:href="#DejaVuSans-34"/>
      </g>
     </g>
    </g>
    <g id="text_16">
     <!-- Im [GHz] -->
     <g transform="translate(21.21375 196.093437) rotate(-90) scale(0.12 -0.12)">
      <defs>
       <path id="DejaVuSans-49" d="M 628 4666 
L 1259 4666 
L 1259 0 
L 628 0 
L 628 4666 
z
" transform="scale(0.015625)"/>
       <path id="DejaVuSans-6d" d="M 3328 2828 
Q 3544 3216 3844 3400 
Q 4144 3584 4550 3584 
Q 5097 3584 5394 3201 
Q 5691 2819 5691 2113 
L 5691 0 
L 5113 0 
L 5113 2094 
Q 5113 2597 4934 2840 
Q 4756 3084 4391 3084 
Q 3944 3084 3684 2787 
Q 3425 2491 3425 1978 
L 3425 0 
L 2847 0 
L 2847 2094 
Q 2847 2600 2669 2842 
Q 2491 3084 2119 3084 
Q 1678 3084 1418 2786 
Q 1159 2488 1159 1978 
L 1159 0 
L 581 0 
L 581 3500 
L 1159 3500 
L 1159 2956 
Q 1356 3278 1631 3431 
Q 1906 3584 2284 3584 
Q 2666 3584 2933 3390 
Q 3200 3197 3328 2828 
z
" transform="scale(0.015625)"/>
      </defs>
      <use xlink:href="#DejaVuSans-49"/>
      <use xlink:href="#DejaVuSans-6d" transform="translate(29.492188 0)"/>
      <use xlink:href="#DejaVuSans-20" transform="translate(126.904297 0)"/>
      <use xlink:href="#DejaVuSans-5b" transform="translate(158.691406 0)"/>
      <use xlink:href="#DejaVuSans-47" transform="translate(197.705078 0)"/>
      <use xlink:href="#DejaVuSans-48" transform="translate(275.195312 0)"/>
      <use xlink:href="#DejaVuSans-7a" transform="translate(350.390625 0)"/>
      <use xlink:href="#DejaVuSans-5d" transform="translate(402.880859 0)"/>
     </g>
    </g>
   </g>
   <g id="line2d_29">
    <path d="M 257.776585 132.323581 
L 257.776585 206.836419 
L 248.398719 169.58 
L -1 169.58 
" clip-path="url(#p9e9df8b5ee)" style="fill: none"/>
    <defs>
     <path id="m2a44b97a0c" d="M -3.5 3.5 
L 3.5 -3.5 
M -3.5 -3.5 
L 3.5 3.5 
" style="stroke: #ff0000; stroke-width: 2"/>
    </defs>
    <g clip-path="url(#p9e9df8b5ee)">
     <use xlink:href="#m2a44b97a0c" x="257.776585" y="132.323581" style="fill-opacity: 0; stroke: #ff0000; stroke-width: 2"/>
     <use xlink:href="#m2a44b97a0c" x="257.776585" y="206.836419" style="fill-opacity: 0; stroke: #ff0000; stroke-width: 2"/>
     <use xlink:href="#m2a44b97a0c" x="248.398719" y="169.58" style="fill-opacity: 0; stroke: #ff0000; stroke-width: 2"/>
     <use xlink:href="#m2a44b97a0c" x="-1" y="169.58" style="fill-opacity: 0; stroke: #ff0000; stroke-width: 2"/>
    </g>
   </g>
   <g id="line2d_30">
    <path d="M 345.334609 169.58 
L 222.154616 131.438497 
L 222.154616 207.721503 
L -1 203.417049 
" clip-path="url(#p9e9df8b5ee)" style="fill: none"/>
    <defs>
     <path id="mcf0836b413" d="M 0 3.5 
C 0.928211 3.5 1.81853 3.131218 2.474874 2.474874 
C 3.131218 1.81853 3.5 0.928211 3.5 0 
C 3.5 -0.928211 3.131218 -1.81853 2.474874 -2.474874 
C 1.81853 -3.131218 0.928211 -3.5 0 -3.5 
C -0.928211 -3.5 -1.81853 -3.131218 -2.474874 -2.474874 
C -3.131218 -1.81853 -3.5 -0.928211 -3.5 0 
C -3.5 0.928211 -3.131218 1.81853 -2.474874 2.474874 
C -1.81853 3.131218 -0.928211 3.5 0 3.5 
z
" style="stroke: #0000ff; stroke-width: 2"/>
    </defs>
    <g clip-path="url(#p9e9df8b5ee)">
     <use xlink:href="#mcf0836b413" x="345.334609" y="169.58" style="fill-opacity: 0; stroke: #0000ff; stroke-width: 2"/>
     <use xlink:href="#mcf0836b413" x="222.154616" y="131.438497" style="fill-opacity: 0; stroke: #0000ff; stroke-width: 2"/>
     <use xlink:href="#mcf0836b413" x="222.154616" y="207.721503" style="fill-opacity: 0; stroke: #0000ff; stroke-width: 2"/>
     <use xlink:href="#mcf0836b413" x="-1" y="203.417049" style="fill-opacity: 0; stroke: #0000ff; stroke-width: 2"/>
    </g>
   </g>
   <g id="line2d_31">
    <path d="M 260.180159 101.889759 
L 260.180159 237.270241 
L 248.649545 169.58 
L -1 169.58 
" clip-path="url(#p9e9df8b5ee)" style="fill: none"/>
    <defs>
     <path id="mc552d4e25e" d="M -3.5 3.5 
L 3.5 -3.5 
M -3.5 -3.5 
L 3.5 3.5 
" style="stroke: #00bfbf; stroke-width: 2"/>
    </defs>
    <g clip-path="url(#p9e9df8b5ee)">
     <use xlink:href="#mc552d4e25e" x="260.180159" y="101.889759" style="fill-opacity: 0; stroke: #00bfbf; stroke-width: 2"/>
     <use xlink:href="#mc552d4e25e" x="260.180159" y="237.270241" style="fill-opacity: 0; stroke: #00bfbf; stroke-width: 2"/>
     <use xlink:href="#mc552d4e25e" x="248.649545" y="169.58" style="fill-opacity: 0; stroke: #00bfbf; stroke-width: 2"/>
     <use xlink:href="#mc552d4e25e" x="-1" y="169.58" style="fill-opacity: 0; stroke: #00bfbf; stroke-width: 2"/>
    </g>
   </g>
   <g id="line2d_32">
    <path d="M 361 160.215683 
L 199.477497 111.833405 
L 199.477497 227.326595 
L -1 221.404508 
" clip-path="url(#p9e9df8b5ee)" style="fill: none"/>
    <defs>
     <path id="m1226fec848" d="M 0 3.5 
C 0.928211 3.5 1.81853 3.131218 2.474874 2.474874 
C 3.131218 1.81853 3.5 0.928211 3.5 0 
C 3.5 -0.928211 3.131218 -1.81853 2.474874 -2.474874 
C 1.81853 -3.131218 0.928211 -3.5 0 -3.5 
C -0.928211 -3.5 -1.81853 -3.131218 -2.474874 -2.474874 
C -3.131218 -1.81853 -3.5 -0.928211 -3.5 0 
C -3.5 0.928211 -3.131218 1.81853 -2.474874 2.474874 
C -1.81853 3.131218 -0.928211 3.5 0 3.5 
z
" style="stroke: #bf00bf; stroke-width: 2"/>
    </defs>
    <g clip-path="url(#p9e9df8b5ee)">
     <use xlink:href="#m1226fec848" x="392.262438" y="169.58" style="fill-opacity: 0; stroke: #bf00bf; stroke-width: 2"/>
     <use xlink:href="#m1226fec848" x="199.477497" y="111.833405" style="fill-opacity: 0; stroke: #bf00bf; stroke-width: 2"/>
     <use xlink:href="#m1226fec848" x="199.477497" y="227.326595" style="fill-opacity: 0; stroke: #bf00bf; stroke-width: 2"/>
     <use xlink:href="#m1226fec848" x="-1" y="221.404508" style="fill-opacity: 0; stroke: #bf00bf; stroke-width: 2"/>
    </g>
   </g>
   <g id="line2d_33">
    <path d="M 260.219997 97.267582 
L 260.219997 241.892418 
L 248.662037 169.58 
L -1 169.58 
" clip-path="url(#p9e9df8b5ee)" style="fill: none"/>
    <defs>
     <path id="m9801f2dcc5" d="M -3.5 3.5 
L 3.5 -3.5 
M -3.5 -3.5 
L 3.5 3.5 
" style="stroke: #000000; stroke-width: 2"/>
    </defs>
    <g clip-path="url(#p9e9df8b5ee)">
     <use xlink:href="#m9801f2dcc5" x="260.219997" y="97.267582" style="fill-opacity: 0; stroke: #000000; stroke-width: 2"/>
     <use xlink:href="#m9801f2dcc5" x="260.219997" y="241.892418" style="fill-opacity: 0; stroke: #000000; stroke-width: 2"/>
     <use xlink:href="#m9801f2dcc5" x="248.662037" y="169.58" style="fill-opacity: 0; stroke: #000000; stroke-width: 2"/>
     <use xlink:href="#m9801f2dcc5" x="-1" y="169.58" style="fill-opacity: 0; stroke: #000000; stroke-width: 2"/>
    </g>
   </g>
   <g id="line2d_34">
    <path d="M 361 157.71435 
L 195.334795 108.167441 
L 195.334795 230.992559 
L -1 224.811747 
" clip-path="url(#p9e9df8b5ee)" style="fill: none"/>
    <defs>
     <path id="m62e45ad075" d="M 0 3.5 
C 0.928211 3.5 1.81853 3.131218 2.474874 2.474874 
C 3.131218 1.81853 3.5 0.928211 3.5 0 
C 3.5 -0.928211 3.131218 -1.81853 2.474874 -2.474874 
C 1.81853 -3.131218 0.928211 -3.5 0 -3.5 
C -0.928211 -3.5 -1.81853 -3.131218 -2.474874 -2.474874 
C -3.131218 -1.81853 -3.5 -0.928211 -3.5 0 
C -3.5 0.928211 -3.131218 1.81853 -2.474874 2.474874 
C -1.81853 3.131218 -0.928211 3.5 0 3.5 
z
" style="stroke: #ff0000; stroke-width: 2"/>
    </defs>
    <g clip-path="url(#p9e9df8b5ee)">
     <use xlink:href="#m62e45ad075" x="400.674025" y="169.58" style="fill-opacity: 0; stroke: #ff0000; stroke-width: 2"/>
     <use xlink:href="#m62e45ad075" x="195.334795" y="108.167441" style="fill-opacity: 0; stroke: #ff0000; stroke-width: 2"/>
     <use xlink:href="#m62e45ad075" x="195.334795" y="230.992559" style="fill-opacity: 0; stroke: #ff0000; stroke-width: 2"/>
     <use xlink:href="#m62e45ad075" x="-1" y="224.811747" style="fill-opacity: 0; stroke: #ff0000; stroke-width: 2"/>
    </g>
   </g>
   <g id="patch_3">
    <path d="M 52.4 312.28 
L 52.4 26.88 
" style="fill: none; stroke: #000000; stroke-width: 0.8; stroke-linejoin: miter; stroke-linecap: square"/>
   </g>
   <g id="patch_4">
    <path d="M 339.705 312.28 
L 339.705 26.88 
" style="fill: none; stroke: #000000; stroke-width: 0.8; stroke-linejoin: miter; stroke-linecap: square"/>
   </g>
   <g id="patch_5">
    <path d="M 52.4 312.28 
L 339.705 312.28 
" style="fill: none; stroke: #000000; stroke-width: 0.8; stroke-linejoin: miter; stroke-linecap: square"/>
   </g>
   <g id="patch_6">
    <path d="M 52.4 26.88 
L 339.705 26.88 
" style="fill: none; stroke: #000000; stroke-width: 0.8; stroke-linejoin: miter; stroke-linecap: square"/>
   </g>
   <g id="text_17">
    <!-- Stepped PZ plot P_peak -->
    <g transform="translate(124.8625 20.88) scale(0.12 -0.12)">
     <defs>
      <path id="DejaVuSans-53" d="M 3425 4513 
L 3425 3897 
Q 3066 4069 2747 4153 
Q 2428 4238 2131 4238 
Q 1616 4238 1336 4038 
Q 1056 3838 1056 3469 
Q 1056 3159 1242 3001 
Q 1428 2844 1947 2747 
L 2328 2669 
Q 3034 2534 3370 2195 
Q 3706 1856 3706 1288 
Q 3706 609 3251 259 
Q 2797 -91 1919 -91 
Q 1588 -91 1214 -16 
Q 841 59 441 206 
L 441 856 
Q 825 641 1194 531 
Q 1563 422 1919 422 
Q 2459 422 2753 634 
Q 3047 847 3047 1241 
Q 3047 1584 2836 1778 
Q 2625 1972 2144 2069 
L 1759 2144 
Q 1053 2284 737 2584 
Q 422 2884 422 3419 
Q 422 4038 858 4394 
Q 1294 4750 2059 4750 
Q 2388 4750 2728 4690 
Q 3069 4631 3425 4513 
z
" transform="scale(0.015625)"/>
      <path id="DejaVuSans-74" d="M 1172 4494 
L 1172 3500 
L 2356 3500 
L 2356 3053 
L 1172 3053 
L 1172 1153 
Q 1172 725 1289 603 
Q 1406 481 1766 481 
L 2356 481 
L 2356 0 
L 1766 0 
Q 1100 0 847 248 
Q 594 497 594 1153 
L 594 3053 
L 172 3053 
L 172 3500 
L 594 3500 
L 594 4494 
L 1172 4494 
z
" transform="scale(0.015625)"/>
      <path id="DejaVuSans-70" d="M 1159 525 
L 1159 -1331 
L 581 -1331 
L 581 3500 
L 1159 3500 
L 1159 2969 
Q 1341 3281 1617 3432 
Q 1894 3584 2278 3584 
Q 2916 3584 3314 3078 
Q 3713 2572 3713 1747 
Q 3713 922 3314 415 
Q 2916 -91 2278 -91 
Q 1894 -91 1617 61 
Q 1341 213 1159 525 
z
M 3116 1747 
Q 3116 2381 2855 2742 
Q 2594 3103 2138 3103 
Q 1681 3103 1420 2742 
Q 1159 2381 1159 1747 
Q 1159 1113 1420 752 
Q 1681 391 2138 391 
Q 2594 391 2855 752 
Q 3116 1113 3116 1747 
z
" transform="scale(0.015625)"/>
      <path id="DejaVuSans-64" d="M 2906 2969 
L 2906 4863 
L 3481 4863 
L 3481 0 
L 2906 0 
L 2906 525 
Q 2725 213 2448 61 
Q 2172 -91 1784 -91 
Q 1150 -91 751 415 
Q 353 922 353 1747 
Q 353 2572 751 3078 
Q 1150 3584 1784 3584 
Q 2172 3584 2448 3432 
Q 2725 3281 2906 2969 
z
M 947 1747 
Q 947 1113 1208 752 
Q 1469 391 1925 391 
Q 2381 391 2643 752 
Q 2906 1113 2906 1747 
Q 2906 2381 2643 2742 
Q 2381 3103 1925 3103 
Q 1469 3103 1208 2742 
Q 947 2381 947 1747 
z
" transform="scale(0.015625)"/>
      <path id="DejaVuSans-50" d="M 1259 4147 
L 1259 2394 
L 2053 2394 
Q 2494 2394 2734 2622 
Q 2975 2850 2975 3272 
Q 2975 3691 2734 3919 
Q 2494 4147 2053 4147 
L 1259 4147 
z
M 628 4666 
L 2053 4666 
Q 2838 4666 3239 4311 
Q 3641 3956 3641 3272 
Q 3641 2581 3239 2228 
Q 2838 1875 2053 1875 
L 1259 1875 
L 1259 0 
L 628 0 
L 628 4666 
z
" transform="scale(0.015625)"/>
      <path id="DejaVuSans-5a" d="M 359 4666 
L 4025 4666 
L 4025 4184 
L 1075 531 
L 4097 531 
L 4097 0 
L 288 0 
L 288 481 
L 3238 4134 
L 359 4134 
L 359 4666 
z
" transform="scale(0.015625)"/>
      <path id="DejaVuSans-6c" d="M 603 4863 
L 1178 4863 
L 1178 0 
L 603 0 
L 603 4863 
z
" transform="scale(0.015625)"/>
      <path id="DejaVuSans-6f" d="M 1959 3097 
Q 1497 3097 1228 2736 
Q 959 2375 959 1747 
Q 959 1119 1226 758 
Q 1494 397 1959 397 
Q 2419 397 2687 759 
Q 2956 1122 2956 1747 
Q 2956 2369 2687 2733 
Q 2419 3097 1959 3097 
z
M 1959 3584 
Q 2709 3584 3137 3096 
Q 3566 2609 3566 1747 
Q 3566 888 3137 398 
Q 2709 -91 1959 -91 
Q 1206 -91 779 398 
Q 353 888 353 1747 
Q 353 2609 779 3096 
Q 1206 3584 1959 3584 
z
" transform="scale(0.015625)"/>
      <path id="DejaVuSans-5f" d="M 3263 -1063 
L 3263 -1509 
L -63 -1509 
L -63 -1063 
L 3263 -1063 
z
" transform="scale(0.015625)"/>
      <path id="DejaVuSans-61" d="M 2194 1759 
Q 1497 1759 1228 1600 
Q 959 1441 959 1056 
Q 959 750 1161 570 
Q 1363 391 1709 391 
Q 2188 391 2477 730 
Q 2766 1069 2766 1631 
L 2766 1759 
L 2194 1759 
z
M 3341 1997 
L 3341 0 
L 2766 0 
L 2766 531 
Q 2569 213 2275 61 
Q 1981 -91 1556 -91 
Q 1019 -91 701 211 
Q 384 513 384 1019 
Q 384 1609 779 1909 
Q 1175 2209 1959 2209 
L 2766 2209 
L 2766 2266 
Q 2766 2663 2505 2880 
Q 2244 3097 1772 3097 
Q 1472 3097 1187 3025 
Q 903 2953 641 2809 
L 641 3341 
Q 956 3463 1253 3523 
Q 1550 3584 1831 3584 
Q 2591 3584 2966 3190 
Q 3341 2797 3341 1997 
z
" transform="scale(0.015625)"/>
      <path id="DejaVuSans-6b" d="M 581 4863 
L 1159 4863 
L 1159 1991 
L 2875 3500 
L 3609 3500 
L 1753 1863 
L 3688 0 
L 2938 0 
L 1159 1709 
L 1159 0 
L 581 0 
L 581 4863 
z
" transform="scale(0.015625)"/>
     </defs>
     <use xlink:href="#DejaVuSans-53"/>
     <use xlink:href="#DejaVuSans-74" transform="translate(63.476562 0)"/>
     <use xlink:href="#DejaVuSans-65" transform="translate(102.685547 0)"/>
     <use xlink:href="#DejaVuSans-70" transform="translate(164.208984 0)"/>
     <use xlink:href="#DejaVuSans-70" transform="translate(227.685547 0)"/>
     <use xlink:href="#DejaVuSans-65" transform="translate(291.162109 0)"/>
     <use xlink:href="#DejaVuSans-64" transform="translate(352.685547 0)"/>
     <use xlink:href="#DejaVuSans-20" transform="translate(416.162109 0)"/>
     <use xlink:href="#DejaVuSans-50" transform="translate(447.949219 0)"/>
     <use xlink:href="#DejaVuSans-5a" transform="translate(508.251953 0)"/>
     <use xlink:href="#DejaVuSans-20" transform="translate(576.757812 0)"/>
     <use xlink:href="#DejaVuSans-70" transform="translate(608.544922 0)"/>
     <use xlink:href="#DejaVuSans-6c" transform="translate(672.021484 0)"/>
     <use xlink:href="#DejaVuSans-6f" transform="translate(699.804688 0)"/>
     <use xlink:href="#DejaVuSans-74" transform="translate(760.986328 0)"/>
     <use xlink:href="#DejaVuSans-20" transform="translate(800.195312 0)"/>
     <use xlink:href="#DejaVuSans-50" transform="translate(831.982422 0)"/>
     <use xlink:href="#DejaVuSans-5f" transform="translate(892.285156 0)"/>
     <use xlink:href="#DejaVuSans-70" transform="translate(942.285156 0)"/>
     <use xlink:href="#DejaVuSans-65" transform="translate(1005.761719 0)"/>
     <use xlink:href="#DejaVuSans-61" transform="translate(1067.285156 0)"/>
     <use xlink:href="#DejaVuSans-6b" transform="translate(1128.564453 0)"/>
    </g>
   </g>
   <g id="legend_1">
    <g id="patch_7">
     <path d="M 59.4 105.5625 
L 133.063125 105.5625 
Q 135.063125 105.5625 135.063125 103.5625 
L 135.063125 33.88 
Q 135.063125 31.88 133.063125 31.88 
L 59.4 31.88 
Q 57.4 31.88 57.4 33.88 
L 57.4 103.5625 
Q 57.4 105.5625 59.4 105.5625 
z
" style="fill: #ffffff; opacity: 0.8; stroke: #cccccc; stroke-linejoin: miter"/>
    </g>
    <g id="line2d_35">
     <path d="M 59.4 39.498125 
L 64.4 39.498125 
L 69.4 39.498125 
" style="fill: none"/>
     <g>
      <use xlink:href="#m2a44b97a0c" x="64.4" y="39.498125" style="fill-opacity: 0; stroke: #ff0000; stroke-width: 2"/>
     </g>
    </g>
    <g id="text_18">
     <!-- poles gain -->
     <g transform="translate(71.4 42.998125) scale(0.12 -0.12)">
      <defs>
       <path id="DejaVuSans-73" d="M 2834 3397 
L 2834 2853 
Q 2591 2978 2328 3040 
Q 2066 3103 1784 3103 
Q 1356 3103 1142 2972 
Q 928 2841 928 2578 
Q 928 2378 1081 2264 
Q 1234 2150 1697 2047 
L 1894 2003 
Q 2506 1872 2764 1633 
Q 3022 1394 3022 966 
Q 3022 478 2636 193 
Q 2250 -91 1575 -91 
Q 1294 -91 989 -36 
Q 684 19 347 128 
L 347 722 
Q 666 556 975 473 
Q 1284 391 1588 391 
Q 1994 391 2212 530 
Q 2431 669 2431 922 
Q 2431 1156 2273 1281 
Q 2116 1406 1581 1522 
L 1381 1569 
Q 847 1681 609 1914 
Q 372 2147 372 2553 
Q 372 3047 722 3315 
Q 1072 3584 1716 3584 
Q 2034 3584 2315 3537 
Q 2597 3491 2834 3397 
z
" transform="scale(0.015625)"/>
       <path id="DejaVuSans-67" d="M 2906 1791 
Q 2906 2416 2648 2759 
Q 2391 3103 1925 3103 
Q 1463 3103 1205 2759 
Q 947 2416 947 1791 
Q 947 1169 1205 825 
Q 1463 481 1925 481 
Q 2391 481 2648 825 
Q 2906 1169 2906 1791 
z
M 3481 434 
Q 3481 -459 3084 -895 
Q 2688 -1331 1869 -1331 
Q 1566 -1331 1297 -1286 
Q 1028 -1241 775 -1147 
L 775 -588 
Q 1028 -725 1275 -790 
Q 1522 -856 1778 -856 
Q 2344 -856 2625 -561 
Q 2906 -266 2906 331 
L 2906 616 
Q 2728 306 2450 153 
Q 2172 0 1784 0 
Q 1141 0 747 490 
Q 353 981 353 1791 
Q 353 2603 747 3093 
Q 1141 3584 1784 3584 
Q 2172 3584 2450 3431 
Q 2728 3278 2906 2969 
L 2906 3500 
L 3481 3500 
L 3481 434 
z
" transform="scale(0.015625)"/>
       <path id="DejaVuSans-69" d="M 603 3500 
L 1178 3500 
L 1178 0 
L 603 0 
L 603 3500 
z
M 603 4863 
L 1178 4863 
L 1178 4134 
L 603 4134 
L 603 4863 
z
" transform="scale(0.015625)"/>
       <path id="DejaVuSans-6e" d="M 3513 2113 
L 3513 0 
L 2938 0 
L 2938 2094 
Q 2938 2591 2744 2837 
Q 2550 3084 2163 3084 
Q 1697 3084 1428 2787 
Q 1159 2491 1159 1978 
L 1159 0 
L 581 0 
L 581 3500 
L 1159 3500 
L 1159 2956 
Q 1366 3272 1645 3428 
Q 1925 3584 2291 3584 
Q 2894 3584 3203 3211 
Q 3513 2838 3513 2113 
z
" transform="scale(0.015625)"/>
      </defs>
      <use xlink:href="#DejaVuSans-70"/>
      <use xlink:href="#DejaVuSans-6f" transform="translate(63.476562 0)"/>
      <use xlink:href="#DejaVuSans-6c" transform="translate(124.658203 0)"/>
      <use xlink:href="#DejaVuSans-65" transform="translate(152.441406 0)"/>
      <use xlink:href="#DejaVuSans-73" transform="translate(213.964844 0)"/>
      <use xlink:href="#DejaVuSans-20" transform="translate(266.064453 0)"/>
      <use xlink:href="#DejaVuSans-67" transform="translate(297.851562 0)"/>
      <use xlink:href="#DejaVuSans-61" transform="translate(361.328125 0)"/>
      <use xlink:href="#DejaVuSans-69" transform="translate(422.607422 0)"/>
      <use xlink:href="#DejaVuSans-6e" transform="translate(450.390625 0)"/>
     </g>
    </g>
    <g id="line2d_36">
     <path d="M 59.4 51.111875 
L 64.4 51.111875 
L 69.4 51.111875 
" style="fill: none"/>
     <g>
      <use xlink:href="#mcf0836b413" x="64.4" y="51.111875" style="fill-opacity: 0; stroke: #0000ff; stroke-width: 2"/>
     </g>
    </g>
    <g id="text_19">
     <!-- zeros gain -->
     <g transform="translate(71.4 54.611875) scale(0.12 -0.12)">
      <defs>
       <path id="DejaVuSans-72" d="M 2631 2963 
Q 2534 3019 2420 3045 
Q 2306 3072 2169 3072 
Q 1681 3072 1420 2755 
Q 1159 2438 1159 1844 
L 1159 0 
L 581 0 
L 581 3500 
L 1159 3500 
L 1159 2956 
Q 1341 3275 1631 3429 
Q 1922 3584 2338 3584 
Q 2397 3584 2469 3576 
Q 2541 3569 2628 3553 
L 2631 2963 
z
" transform="scale(0.015625)"/>
      </defs>
      <use xlink:href="#DejaVuSans-7a"/>
      <use xlink:href="#DejaVuSans-65" transform="translate(52.490234 0)"/>
      <use xlink:href="#DejaVuSans-72" transform="translate(114.013672 0)"/>
      <use xlink:href="#DejaVuSans-6f" transform="translate(152.876953 0)"/>
      <use xlink:href="#DejaVuSans-73" transform="translate(214.058594 0)"/>
      <use xlink:href="#DejaVuSans-20" transform="translate(266.158203 0)"/>
      <use xlink:href="#DejaVuSans-67" transform="translate(297.945312 0)"/>
      <use xlink:href="#DejaVuSans-61" transform="translate(361.421875 0)"/>
      <use xlink:href="#DejaVuSans-69" transform="translate(422.701172 0)"/>
      <use xlink:href="#DejaVuSans-6e" transform="translate(450.484375 0)"/>
     </g>
    </g>
    <g id="line2d_37">
     <path d="M 59.4 62.725625 
L 64.4 62.725625 
L 69.4 62.725625 
" style="fill: none"/>
     <g>
      <use xlink:href="#mc552d4e25e" x="64.4" y="62.725625" style="fill-opacity: 0; stroke: #00bfbf; stroke-width: 2"/>
     </g>
    </g>
    <g id="text_20">
     <!-- poles gain -->
     <g transform="translate(71.4 66.225625) scale(0.12 -0.12)">
      <use xlink:href="#DejaVuSans-70"/>
      <use xlink:href="#DejaVuSans-6f" transform="translate(63.476562 0)"/>
      <use xlink:href="#DejaVuSans-6c" transform="translate(124.658203 0)"/>
      <use xlink:href="#DejaVuSans-65" transform="translate(152.441406 0)"/>
      <use xlink:href="#DejaVuSans-73" transform="translate(213.964844 0)"/>
      <use xlink:href="#DejaVuSans-20" transform="translate(266.064453 0)"/>
      <use xlink:href="#DejaVuSans-67" transform="translate(297.851562 0)"/>
      <use xlink:href="#DejaVuSans-61" transform="translate(361.328125 0)"/>
      <use xlink:href="#DejaVuSans-69" transform="translate(422.607422 0)"/>
      <use xlink:href="#DejaVuSans-6e" transform="translate(450.390625 0)"/>
     </g>
    </g>
    <g id="line2d_38">
     <path d="M 59.4 74.339375 
L 64.4 74.339375 
L 69.4 74.339375 
" style="fill: none"/>
     <g>
      <use xlink:href="#m1226fec848" x="64.4" y="74.339375" style="fill-opacity: 0; stroke: #bf00bf; stroke-width: 2"/>
     </g>
    </g>
    <g id="text_21">
     <!-- zeros gain -->
     <g transform="translate(71.4 77.839375) scale(0.12 -0.12)">
      <use xlink:href="#DejaVuSans-7a"/>
      <use xlink:href="#DejaVuSans-65" transform="translate(52.490234 0)"/>
      <use xlink:href="#DejaVuSans-72" transform="translate(114.013672 0)"/>
      <use xlink:href="#DejaVuSans-6f" transform="translate(152.876953 0)"/>
      <use xlink:href="#DejaVuSans-73" transform="translate(214.058594 0)"/>
      <use xlink:href="#DejaVuSans-20" transform="translate(266.158203 0)"/>
      <use xlink:href="#DejaVuSans-67" transform="translate(297.945312 0)"/>
      <use xlink:href="#DejaVuSans-61" transform="translate(361.421875 0)"/>
      <use xlink:href="#DejaVuSans-69" transform="translate(422.701172 0)"/>
      <use xlink:href="#DejaVuSans-6e" transform="translate(450.484375 0)"/>
     </g>
    </g>
    <g id="line2d_39">
     <path d="M 59.4 85.953125 
L 64.4 85.953125 
L 69.4 85.953125 
" style="fill: none"/>
     <g>
      <use xlink:href="#m9801f2dcc5" x="64.4" y="85.953125" style="fill-opacity: 0; stroke: #000000; stroke-width: 2"/>
     </g>
    </g>
    <g id="text_22">
     <!-- poles gain -->
     <g transform="translate(71.4 89.453125) scale(0.12 -0.12)">
      <use xlink:href="#DejaVuSans-70"/>
      <use xlink:href="#DejaVuSans-6f" transform="translate(63.476562 0)"/>
      <use xlink:href="#DejaVuSans-6c" transform="translate(124.658203 0)"/>
      <use xlink:href="#DejaVuSans-65" transform="translate(152.441406 0)"/>
      <use xlink:href="#DejaVuSans-73" transform="translate(213.964844 0)"/>
      <use xlink:href="#DejaVuSans-20" transform="translate(266.064453 0)"/>
      <use xlink:href="#DejaVuSans-67" transform="translate(297.851562 0)"/>
      <use xlink:href="#DejaVuSans-61" transform="translate(361.328125 0)"/>
      <use xlink:href="#DejaVuSans-69" transform="translate(422.607422 0)"/>
      <use xlink:href="#DejaVuSans-6e" transform="translate(450.390625 0)"/>
     </g>
    </g>
    <g id="line2d_40">
     <path d="M 59.4 97.566875 
L 64.4 97.566875 
L 69.4 97.566875 
" style="fill: none"/>
     <g>
      <use xlink:href="#m62e45ad075" x="64.4" y="97.566875" style="fill-opacity: 0; stroke: #ff0000; stroke-width: 2"/>
     </g>
    </g>
    <g id="text_23">
     <!-- zeros gain -->
     <g transform="translate(71.4 101.066875) scale(0.12 -0.12)">
      <use xlink:href="#DejaVuSans-7a"/>
      <use xlink:href="#DejaVuSans-65" transform="translate(52.490234 0)"/>
      <use xlink:href="#DejaVuSans-72" transform="translate(114.013672 0)"/>
      <use xlink:href="#DejaVuSans-6f" transform="translate(152.876953 0)"/>
      <use xlink:href="#DejaVuSans-73" transform="translate(214.058594 0)"/>
      <use xlink:href="#DejaVuSans-20" transform="translate(266.158203 0)"/>
      <use xlink:href="#DejaVuSans-67" transform="translate(297.945312 0)"/>
      <use xlink:href="#DejaVuSans-61" transform="translate(361.421875 0)"/>
      <use xlink:href="#DejaVuSans-69" transform="translate(422.701172 0)"/>
      <use xlink:href="#DejaVuSans-6e" transform="translate(450.484375 0)"/>
     </g>
    </g>
   </g>
  </g>
 </g>
 <defs>
  <clipPath id="p9e9df8b5ee">
   <rect x="52.4" y="26.88" width="287.305" height="285.4"/>
  </clipPath>
 </defs>
</svg>
