<?xml version="1.0" standalone="no"?>
 <!DOCTYPE svg PUBLIC "-//W3C//DTD SVG 1.1//EN" 
 "http://www.w3.org/Graphics/SVG/1.1/DTD/svg11.dtd"> 
<svg
  xmlns:svg="http://www.w3.org/2000/svg"
  xmlns="http://www.w3.org/2000/svg"
  xmlns:xlink="http://www.w3.org/1999/xlink"
  version="1.1"
  width="297.0022mm" height="210.0072mm" viewBox="0.0000 0.0000 297.0022 210.0072">
<title>SVG Image created as Active_E-Field_Probe-Two-Port.svg date 2025/09/19 10:05:59 </title>
  <desc>Image generated by Eeschema-SVG </desc>
<g style="fill:#000000; fill-opacity:1.0000;stroke:#000000; stroke-opacity:1.0000;
stroke-linecap:round; stroke-linejoin:round;"
 transform="translate(0 0) scale(1 1)">
</g>
<g style="fill:#FFFFC2; fill-opacity:1.0000; stroke:none;">
<rect x="64.770000" y="31.750000" width="10.160000" height="12.700000" rx="0.000000" />
</g>
<g style="fill:none; 
stroke:#840000; stroke-width:0.1524; stroke-opacity:1; 
stroke-linecap:round; stroke-linejoin:round;">
<rect x="64.770000" y="31.750000" width="10.160000" height="12.700000" rx="0.000000" />
<text x="66.0400" y="33.6550"
textLength="1.7756" font-size="1.6933" lengthAdjust="spacingAndGlyphs"
text-anchor="middle" opacity="0" stroke-opacity="0">+</text>
<g class="stroked-text"><desc>+</desc>
<path d="M65.5561 33.1157
L66.5238 33.1157
" />
<path d="M66.0399 33.5995
L66.0399 32.6319
" />
</g><text x="66.0400" y="43.5610"
textLength="1.7756" font-size="1.6933" lengthAdjust="spacingAndGlyphs"
text-anchor="middle" opacity="0" stroke-opacity="0">-</text>
<g class="stroked-text"><desc>-</desc>
<path d="M65.5561 43.0217
L66.5238 43.0217
" />
</g><text x="66.5480" y="38.7350"
textLength="1.9570" font-size="1.6933" lengthAdjust="spacingAndGlyphs"
text-anchor="middle" opacity="0" stroke-opacity="0">in</text>
<g class="stroked-text"><desc>in</desc>
<path d="M65.9734 38.6795
L65.9734 37.8329
" />
<path d="M65.9734 37.4095
L65.9130 37.4700
" />
<path d="M65.9130 37.4700
L65.9734 37.5305
" />
<path d="M65.9734 37.5305
L66.0339 37.4700
" />
<path d="M66.0339 37.4700
L65.9734 37.4095
" />
<path d="M65.9734 37.4095
L65.9734 37.5305
" />
<path d="M66.5782 37.8329
L66.5782 38.6795
" />
<path d="M66.5782 37.9538
L66.6387 37.8933
" />
<path d="M66.6387 37.8933
L66.7597 37.8329
" />
<path d="M66.7597 37.8329
L66.9411 37.8329
" />
<path d="M66.9411 37.8329
L67.0620 37.8933
" />
<path d="M67.0620 37.8933
L67.1225 38.0143
" />
<path d="M67.1225 38.0143
L67.1225 38.6795
" />
</g><text x="72.6440" y="38.7350"
textLength="3.2269" font-size="1.6933" lengthAdjust="spacingAndGlyphs"
text-anchor="middle" opacity="0" stroke-opacity="0">out</text>
<g class="stroked-text"><desc>out</desc>
<path d="M71.6160 38.6795
L71.4950 38.6191
" />
<path d="M71.4950 38.6191
L71.4345 38.5586
" />
<path d="M71.4345 38.5586
L71.3741 38.4376
" />
<path d="M71.3741 38.4376
L71.3741 38.0748
" />
<path d="M71.3741 38.0748
L71.4345 37.9538
" />
<path d="M71.4345 37.9538
L71.4950 37.8933
" />
<path d="M71.4950 37.8933
L71.6160 37.8329
" />
<path d="M71.6160 37.8329
L71.7974 37.8329
" />
<path d="M71.7974 37.8329
L71.9183 37.8933
" />
<path d="M71.9183 37.8933
L71.9788 37.9538
" />
<path d="M71.9788 37.9538
L72.0393 38.0748
" />
<path d="M72.0393 38.0748
L72.0393 38.4376
" />
<path d="M72.0393 38.4376
L71.9788 38.5586
" />
<path d="M71.9788 38.5586
L71.9183 38.6191
" />
<path d="M71.9183 38.6191
L71.7974 38.6795
" />
<path d="M71.7974 38.6795
L71.6160 38.6795
" />
<path d="M73.1278 37.8329
L73.1278 38.6795
" />
<path d="M72.5835 37.8329
L72.5835 38.4981
" />
<path d="M72.5835 38.4981
L72.6440 38.6191
" />
<path d="M72.6440 38.6191
L72.7650 38.6795
" />
<path d="M72.7650 38.6795
L72.9464 38.6795
" />
<path d="M72.9464 38.6795
L73.0673 38.6191
" />
<path d="M73.0673 38.6191
L73.1278 38.5586
" />
<path d="M73.5511 37.8329
L74.0349 37.8329
" />
<path d="M73.7325 37.4095
L73.7325 38.4981
" />
<path d="M73.7325 38.4981
L73.7930 38.6191
" />
<path d="M73.7930 38.6191
L73.9140 38.6795
" />
<path d="M73.9140 38.6795
L74.0349 38.6795
" />
</g><text x="73.6600" y="33.6550"
textLength="1.7756" font-size="1.6933" lengthAdjust="spacingAndGlyphs"
text-anchor="middle" opacity="0" stroke-opacity="0">+</text>
<g class="stroked-text"><desc>+</desc>
<path d="M73.1761 33.1157
L74.1438 33.1157
" />
<path d="M73.6599 33.5995
L73.6599 32.6319
" />
</g><text x="73.6600" y="43.5610"
textLength="1.7756" font-size="1.6933" lengthAdjust="spacingAndGlyphs"
text-anchor="middle" opacity="0" stroke-opacity="0">-</text>
<g class="stroked-text"><desc>-</desc>
<path d="M73.1761 43.0217
L74.1438 43.0217
" />
</g><path d="M74.9300 33.0200
L77.4700 33.0200
" />
<path d="M74.9300 43.1800
L77.4700 43.1800
" />
<path d="M64.7700 33.0200
L62.2300 33.0200
" />
<path d="M64.7700 43.1800
L62.2300 43.1800
" />
</g>
<g style="fill:none; 
stroke:#006464; stroke-width:0.1524; stroke-opacity:1; 
stroke-linecap:round; stroke-linejoin:round;">
<text x="69.8500" y="27.3050"
textLength="2.6222" font-size="1.6933" lengthAdjust="spacingAndGlyphs"
text-anchor="middle" opacity="0" stroke-opacity="0">X1</text>
<g class="stroked-text"><desc>X1</desc>
<path d="M68.8219 25.9795
L69.6685 27.2495
" />
<path d="M69.6685 25.9795
L68.8219 27.2495
" />
<path d="M70.8176 27.2495
L70.0919 27.2495
" />
<path d="M70.4547 27.2495
L70.4547 25.9795
" />
<path d="M70.4547 25.9795
L70.3338 26.1610
" />
<path d="M70.3338 26.1610
L70.2128 26.2819
" />
<path d="M70.2128 26.2819
L70.0919 26.3424
" />
</g></g>
<g style="fill:none; 
stroke:#840084; stroke-width:0.1524; stroke-opacity:1; 
stroke-linecap:round; stroke-linejoin:round;">
<text x="69.8500" y="29.8450"
textLength="8.6093" font-size="1.6933" lengthAdjust="spacingAndGlyphs"
text-anchor="middle" opacity="0" stroke-opacity="0">model: ?</text>
<g class="stroked-text"><desc>model: ?</desc>
<path d="M65.9493 29.7895
L65.9493 28.9429
" />
<path d="M65.9493 29.0638
L66.0098 29.0033
" />
<path d="M66.0098 29.0033
L66.1308 28.9429
" />
<path d="M66.1308 28.9429
L66.3122 28.9429
" />
<path d="M66.3122 28.9429
L66.4331 29.0033
" />
<path d="M66.4331 29.0033
L66.4936 29.1243
" />
<path d="M66.4936 29.1243
L66.4936 29.7895
" />
<path d="M66.4936 29.1243
L66.5541 29.0033
" />
<path d="M66.5541 29.0033
L66.6750 28.9429
" />
<path d="M66.6750 28.9429
L66.8565 28.9429
" />
<path d="M66.8565 28.9429
L66.9774 29.0033
" />
<path d="M66.9774 29.0033
L67.0379 29.1243
" />
<path d="M67.0379 29.1243
L67.0379 29.7895
" />
<path d="M67.8241 29.7895
L67.7031 29.7291
" />
<path d="M67.7031 29.7291
L67.6426 29.6686
" />
<path d="M67.6426 29.6686
L67.5822 29.5476
" />
<path d="M67.5822 29.5476
L67.5822 29.1848
" />
<path d="M67.5822 29.1848
L67.6426 29.0638
" />
<path d="M67.6426 29.0638
L67.7031 29.0033
" />
<path d="M67.7031 29.0033
L67.8241 28.9429
" />
<path d="M67.8241 28.9429
L68.0055 28.9429
" />
<path d="M68.0055 28.9429
L68.1264 29.0033
" />
<path d="M68.1264 29.0033
L68.1869 29.0638
" />
<path d="M68.1869 29.0638
L68.2474 29.1848
" />
<path d="M68.2474 29.1848
L68.2474 29.5476
" />
<path d="M68.2474 29.5476
L68.1869 29.6686
" />
<path d="M68.1869 29.6686
L68.1264 29.7291
" />
<path d="M68.1264 29.7291
L68.0055 29.7895
" />
<path d="M68.0055 29.7895
L67.8241 29.7895
" />
<path d="M69.3359 29.7895
L69.3359 28.5195
" />
<path d="M69.3359 29.7291
L69.2150 29.7895
" />
<path d="M69.2150 29.7895
L68.9731 29.7895
" />
<path d="M68.9731 29.7895
L68.8521 29.7291
" />
<path d="M68.8521 29.7291
L68.7916 29.6686
" />
<path d="M68.7916 29.6686
L68.7312 29.5476
" />
<path d="M68.7312 29.5476
L68.7312 29.1848
" />
<path d="M68.7312 29.1848
L68.7916 29.0638
" />
<path d="M68.7916 29.0638
L68.8521 29.0033
" />
<path d="M68.8521 29.0033
L68.9731 28.9429
" />
<path d="M68.9731 28.9429
L69.2150 28.9429
" />
<path d="M69.2150 28.9429
L69.3359 29.0033
" />
<path d="M70.4244 29.7291
L70.3035 29.7895
" />
<path d="M70.3035 29.7895
L70.0616 29.7895
" />
<path d="M70.0616 29.7895
L69.9406 29.7291
" />
<path d="M69.9406 29.7291
L69.8802 29.6081
" />
<path d="M69.8802 29.6081
L69.8802 29.1243
" />
<path d="M69.8802 29.1243
L69.9406 29.0033
" />
<path d="M69.9406 29.0033
L70.0616 28.9429
" />
<path d="M70.0616 28.9429
L70.3035 28.9429
" />
<path d="M70.3035 28.9429
L70.4244 29.0033
" />
<path d="M70.4244 29.0033
L70.4849 29.1243
" />
<path d="M70.4849 29.1243
L70.4849 29.2452
" />
<path d="M70.4849 29.2452
L69.8802 29.3662
" />
<path d="M71.2107 29.7895
L71.0897 29.7291
" />
<path d="M71.0897 29.7291
L71.0292 29.6081
" />
<path d="M71.0292 29.6081
L71.0292 28.5195
" />
<path d="M71.6944 29.6686
L71.7549 29.7291
" />
<path d="M71.7549 29.7291
L71.6944 29.7895
" />
<path d="M71.6944 29.7895
L71.6340 29.7291
" />
<path d="M71.6340 29.7291
L71.6944 29.6686
" />
<path d="M71.6944 29.6686
L71.6944 29.7895
" />
<path d="M71.6944 29.0033
L71.7549 29.0638
" />
<path d="M71.7549 29.0638
L71.6944 29.1243
" />
<path d="M71.6944 29.1243
L71.6340 29.0638
" />
<path d="M71.6340 29.0638
L71.6944 29.0033
" />
<path d="M71.6944 29.0033
L71.6944 29.1243
" />
<path d="M73.4483 29.6686
L73.5087 29.7291
" />
<path d="M73.5087 29.7291
L73.4483 29.7895
" />
<path d="M73.4483 29.7895
L73.3878 29.7291
" />
<path d="M73.3878 29.7291
L73.4483 29.6686
" />
<path d="M73.4483 29.6686
L73.4483 29.7895
" />
<path d="M73.2064 28.5800
L73.3273 28.5195
" />
<path d="M73.3273 28.5195
L73.6297 28.5195
" />
<path d="M73.6297 28.5195
L73.7506 28.5800
" />
<path d="M73.7506 28.5800
L73.8111 28.7010
" />
<path d="M73.8111 28.7010
L73.8111 28.8219
" />
<path d="M73.8111 28.8219
L73.7506 28.9429
" />
<path d="M73.7506 28.9429
L73.6902 29.0033
" />
<path d="M73.6902 29.0033
L73.5692 29.0638
" />
<path d="M73.5692 29.0638
L73.5087 29.1243
" />
<path d="M73.5087 29.1243
L73.4483 29.2452
" />
<path d="M73.4483 29.2452
L73.4483 29.3057
" />
</g><path style="fill:none; 
stroke:#840000; stroke-width:0.3810; stroke-opacity:1; 
stroke-linecap:round; stroke-linejoin:round;fill:none"
d="M 46.7360,37.3380
44.7040,37.3380
" /> 
<path style="fill:none; 
stroke:#840000; stroke-width:0.1524; stroke-opacity:1; 
stroke-linecap:round; stroke-linejoin:round;fill:none"
d="M 45.7200,40.6400
45.7200,38.8620
45.7200,39.1160
" /> 
<path style="fill:#840000; fill-opacity:1.0000; 
stroke:#840000; stroke-width:0.3810; stroke-opacity:1; 
stroke-linecap:round; stroke-linejoin:round;fill-rule:evenodd;"
d="M 45.7200,37.5920
46.7360,38.8620
44.7040,38.8620
Z" /> 
<path style="fill:none; 
stroke:#840000; stroke-width:0.1524; stroke-opacity:1; 
stroke-linecap:round; stroke-linejoin:round;fill:none"
d="M 45.7200,35.5600
45.7200,37.5920
" /> 
</g>
<g style="fill:none; 
stroke:#840000; stroke-width:0.1524; stroke-opacity:1; 
stroke-linecap:round; stroke-linejoin:round;">
<path d="M45.7200 40.6400
L45.7200 43.1800
" />
<path d="M45.7200 35.5600
L45.7200 33.0200
" />
</g>
<g style="fill:none; 
stroke:#006464; stroke-width:0.1524; stroke-opacity:1; 
stroke-linecap:round; stroke-linejoin:round;">
<text x="49.6109" y="37.4648"
textLength="2.6827" font-size="1.6933" lengthAdjust="spacingAndGlyphs"
text-anchor="middle" opacity="0" stroke-opacity="0">D3</text>
<g class="stroked-text"><desc>D3</desc>
<path d="M48.6735 37.4093
L48.6735 36.1393
" />
<path d="M48.6735 36.1393
L48.9759 36.1393
" />
<path d="M48.9759 36.1393
L49.1573 36.1998
" />
<path d="M49.1573 36.1998
L49.2783 36.3208
" />
<path d="M49.2783 36.3208
L49.3388 36.4417
" />
<path d="M49.3388 36.4417
L49.3992 36.6836
" />
<path d="M49.3992 36.6836
L49.3992 36.8650
" />
<path d="M49.3992 36.8650
L49.3388 37.1069
" />
<path d="M49.3388 37.1069
L49.2783 37.2279
" />
<path d="M49.2783 37.2279
L49.1573 37.3489
" />
<path d="M49.1573 37.3489
L48.9759 37.4093
" />
<path d="M48.9759 37.4093
L48.6735 37.4093
" />
<path d="M49.8226 36.1393
L50.6088 36.1393
" />
<path d="M50.6088 36.1393
L50.1854 36.6231
" />
<path d="M50.1854 36.6231
L50.3669 36.6231
" />
<path d="M50.3669 36.6231
L50.4878 36.6836
" />
<path d="M50.4878 36.6836
L50.5483 36.7441
" />
<path d="M50.5483 36.7441
L50.6088 36.8650
" />
<path d="M50.6088 36.8650
L50.6088 37.1674
" />
<path d="M50.6088 37.1674
L50.5483 37.2884
" />
<path d="M50.5483 37.2884
L50.4878 37.3489
" />
<path d="M50.4878 37.3489
L50.3669 37.4093
" />
<path d="M50.3669 37.4093
L50.0040 37.4093
" />
<path d="M50.0040 37.4093
L49.8831 37.3489
" />
<path d="M49.8831 37.3489
L49.8226 37.2884
" />
</g></g>
<g style="fill:none; 
stroke:#840084; stroke-width:0.1524; stroke-opacity:1; 
stroke-linecap:round; stroke-linejoin:round;">
<text x="52.6649" y="40.0048"
textLength="8.7907" font-size="1.6933" lengthAdjust="spacingAndGlyphs"
text-anchor="middle" opacity="0" stroke-opacity="0">model: D</text>
<g class="stroked-text"><desc>model: D</desc>
<path d="M48.6735 39.9493
L48.6735 39.1027
" />
<path d="M48.6735 39.2236
L48.7340 39.1631
" />
<path d="M48.7340 39.1631
L48.8550 39.1027
" />
<path d="M48.8550 39.1027
L49.0364 39.1027
" />
<path d="M49.0364 39.1027
L49.1573 39.1631
" />
<path d="M49.1573 39.1631
L49.2178 39.2841
" />
<path d="M49.2178 39.2841
L49.2178 39.9493
" />
<path d="M49.2178 39.2841
L49.2783 39.1631
" />
<path d="M49.2783 39.1631
L49.3992 39.1027
" />
<path d="M49.3992 39.1027
L49.5807 39.1027
" />
<path d="M49.5807 39.1027
L49.7016 39.1631
" />
<path d="M49.7016 39.1631
L49.7621 39.2841
" />
<path d="M49.7621 39.2841
L49.7621 39.9493
" />
<path d="M50.5483 39.9493
L50.4273 39.8889
" />
<path d="M50.4273 39.8889
L50.3668 39.8284
" />
<path d="M50.3668 39.8284
L50.3064 39.7074
" />
<path d="M50.3064 39.7074
L50.3064 39.3446
" />
<path d="M50.3064 39.3446
L50.3668 39.2236
" />
<path d="M50.3668 39.2236
L50.4273 39.1631
" />
<path d="M50.4273 39.1631
L50.5483 39.1027
" />
<path d="M50.5483 39.1027
L50.7297 39.1027
" />
<path d="M50.7297 39.1027
L50.8506 39.1631
" />
<path d="M50.8506 39.1631
L50.9111 39.2236
" />
<path d="M50.9111 39.2236
L50.9716 39.3446
" />
<path d="M50.9716 39.3446
L50.9716 39.7074
" />
<path d="M50.9716 39.7074
L50.9111 39.8284
" />
<path d="M50.9111 39.8284
L50.8506 39.8889
" />
<path d="M50.8506 39.8889
L50.7297 39.9493
" />
<path d="M50.7297 39.9493
L50.5483 39.9493
" />
<path d="M52.0601 39.9493
L52.0601 38.6793
" />
<path d="M52.0601 39.8889
L51.9392 39.9493
" />
<path d="M51.9392 39.9493
L51.6973 39.9493
" />
<path d="M51.6973 39.9493
L51.5763 39.8889
" />
<path d="M51.5763 39.8889
L51.5158 39.8284
" />
<path d="M51.5158 39.8284
L51.4554 39.7074
" />
<path d="M51.4554 39.7074
L51.4554 39.3446
" />
<path d="M51.4554 39.3446
L51.5158 39.2236
" />
<path d="M51.5158 39.2236
L51.5763 39.1631
" />
<path d="M51.5763 39.1631
L51.6973 39.1027
" />
<path d="M51.6973 39.1027
L51.9392 39.1027
" />
<path d="M51.9392 39.1027
L52.0601 39.1631
" />
<path d="M53.1486 39.8889
L53.0277 39.9493
" />
<path d="M53.0277 39.9493
L52.7858 39.9493
" />
<path d="M52.7858 39.9493
L52.6648 39.8889
" />
<path d="M52.6648 39.8889
L52.6044 39.7679
" />
<path d="M52.6044 39.7679
L52.6044 39.2841
" />
<path d="M52.6044 39.2841
L52.6648 39.1631
" />
<path d="M52.6648 39.1631
L52.7858 39.1027
" />
<path d="M52.7858 39.1027
L53.0277 39.1027
" />
<path d="M53.0277 39.1027
L53.1486 39.1631
" />
<path d="M53.1486 39.1631
L53.2091 39.2841
" />
<path d="M53.2091 39.2841
L53.2091 39.4050
" />
<path d="M53.2091 39.4050
L52.6044 39.5260
" />
<path d="M53.9349 39.9493
L53.8139 39.8889
" />
<path d="M53.8139 39.8889
L53.7534 39.7679
" />
<path d="M53.7534 39.7679
L53.7534 38.6793
" />
<path d="M54.4186 39.8284
L54.4791 39.8889
" />
<path d="M54.4791 39.8889
L54.4186 39.9493
" />
<path d="M54.4186 39.9493
L54.3582 39.8889
" />
<path d="M54.3582 39.8889
L54.4186 39.8284
" />
<path d="M54.4186 39.8284
L54.4186 39.9493
" />
<path d="M54.4186 39.1631
L54.4791 39.2236
" />
<path d="M54.4791 39.2236
L54.4186 39.2841
" />
<path d="M54.4186 39.2841
L54.3582 39.2236
" />
<path d="M54.3582 39.2236
L54.4186 39.1631
" />
<path d="M54.4186 39.1631
L54.4186 39.2841
" />
<path d="M55.9910 39.9493
L55.9910 38.6793
" />
<path d="M55.9910 38.6793
L56.2934 38.6793
" />
<path d="M56.2934 38.6793
L56.4748 38.7398
" />
<path d="M56.4748 38.7398
L56.5958 38.8608
" />
<path d="M56.5958 38.8608
L56.6563 38.9817
" />
<path d="M56.6563 38.9817
L56.7167 39.2236
" />
<path d="M56.7167 39.2236
L56.7167 39.4050
" />
<path d="M56.7167 39.4050
L56.6563 39.6469
" />
<path d="M56.6563 39.6469
L56.5958 39.7679
" />
<path d="M56.5958 39.7679
L56.4748 39.8889
" />
<path d="M56.4748 39.8889
L56.2934 39.9493
" />
<path d="M56.2934 39.9493
L55.9910 39.9493
" />
</g></g>
<g style="fill:#FFFFC2; fill-opacity:1.0000; stroke:none;">
<rect x="87.630000" y="35.560000" width="2.540000" height="5.080000" rx="0.000000" />
</g>
<g style="fill:none; 
stroke:#840000; stroke-width:0.1524; stroke-opacity:1; 
stroke-linecap:round; stroke-linejoin:round;">
<rect x="87.630000" y="35.560000" width="2.540000" height="5.080000" rx="0.000000" />
<text x="88.9000" y="37.4650"
textLength="1.7756" font-size="1.6933" lengthAdjust="spacingAndGlyphs"
text-anchor="middle" opacity="0" stroke-opacity="0">+</text>
<g class="stroked-text"><desc>+</desc>
<path d="M88.4161 36.9257
L89.3838 36.9257
" />
<path d="M88.8999 37.4095
L88.8999 36.4419
" />
</g><path d="M88.9000 35.5600
L88.9000 33.0200
" />
<path d="M88.9000 40.6400
L88.9000 43.1800
" />
</g>
<g style="fill:none; 
stroke:#006464; stroke-width:0.1524; stroke-opacity:1; 
stroke-linecap:round; stroke-linejoin:round;">
<text x="92.7909" y="45.0851"
textLength="2.6827" font-size="1.6933" lengthAdjust="spacingAndGlyphs"
text-anchor="middle" opacity="0" stroke-opacity="0">R3</text>
<g class="stroked-text"><desc>R3</desc>
<path d="M92.5792 45.0296
L92.1559 44.4249
" />
<path d="M91.8535 45.0296
L91.8535 43.7596
" />
<path d="M91.8535 43.7596
L92.3373 43.7596
" />
<path d="M92.3373 43.7596
L92.4583 43.8201
" />
<path d="M92.4583 43.8201
L92.5188 43.8806
" />
<path d="M92.5188 43.8806
L92.5792 44.0015
" />
<path d="M92.5792 44.0015
L92.5792 44.1830
" />
<path d="M92.5792 44.1830
L92.5188 44.3039
" />
<path d="M92.5188 44.3039
L92.4583 44.3644
" />
<path d="M92.4583 44.3644
L92.3373 44.4249
" />
<path d="M92.3373 44.4249
L91.8535 44.4249
" />
<path d="M93.0026 43.7596
L93.7888 43.7596
" />
<path d="M93.7888 43.7596
L93.3654 44.2434
" />
<path d="M93.3654 44.2434
L93.5469 44.2434
" />
<path d="M93.5469 44.2434
L93.6678 44.3039
" />
<path d="M93.6678 44.3039
L93.7283 44.3644
" />
<path d="M93.7283 44.3644
L93.7888 44.4853
" />
<path d="M93.7888 44.4853
L93.7888 44.7877
" />
<path d="M93.7888 44.7877
L93.7283 44.9087
" />
<path d="M93.7283 44.9087
L93.6678 44.9692
" />
<path d="M93.6678 44.9692
L93.5469 45.0296
" />
<path d="M93.5469 45.0296
L93.1840 45.0296
" />
<path d="M93.1840 45.0296
L93.0631 44.9692
" />
<path d="M93.0631 44.9692
L93.0026 44.9087
" />
</g><text x="96.1171" y="42.5451"
textLength="9.3350" font-size="1.6933" lengthAdjust="spacingAndGlyphs"
text-anchor="middle" opacity="0" stroke-opacity="0">Value: 50</text>
<g class="stroked-text"><desc>Value: 50</desc>
<path d="M91.6721 41.2196
L92.0954 42.4896
" />
<path d="M92.0954 42.4896
L92.5188 41.2196
" />
<path d="M93.4864 42.4896
L93.4864 41.8244
" />
<path d="M93.4864 41.8244
L93.4259 41.7034
" />
<path d="M93.4259 41.7034
L93.3050 41.6430
" />
<path d="M93.3050 41.6430
L93.0631 41.6430
" />
<path d="M93.0631 41.6430
L92.9421 41.7034
" />
<path d="M93.4864 42.4292
L93.3655 42.4896
" />
<path d="M93.3655 42.4896
L93.0631 42.4896
" />
<path d="M93.0631 42.4896
L92.9421 42.4292
" />
<path d="M92.9421 42.4292
L92.8817 42.3082
" />
<path d="M92.8817 42.3082
L92.8817 42.1872
" />
<path d="M92.8817 42.1872
L92.9421 42.0663
" />
<path d="M92.9421 42.0663
L93.0631 42.0058
" />
<path d="M93.0631 42.0058
L93.3655 42.0058
" />
<path d="M93.3655 42.0058
L93.4864 41.9453
" />
<path d="M94.2726 42.4896
L94.1516 42.4292
" />
<path d="M94.1516 42.4292
L94.0911 42.3082
" />
<path d="M94.0911 42.3082
L94.0911 41.2196
" />
<path d="M95.3006 41.6430
L95.3006 42.4896
" />
<path d="M94.7563 41.6430
L94.7563 42.3082
" />
<path d="M94.7563 42.3082
L94.8168 42.4292
" />
<path d="M94.8168 42.4292
L94.9378 42.4896
" />
<path d="M94.9378 42.4896
L95.1192 42.4896
" />
<path d="M95.1192 42.4896
L95.2401 42.4292
" />
<path d="M95.2401 42.4292
L95.3006 42.3687
" />
<path d="M96.3891 42.4292
L96.2682 42.4896
" />
<path d="M96.2682 42.4896
L96.0263 42.4896
" />
<path d="M96.0263 42.4896
L95.9053 42.4292
" />
<path d="M95.9053 42.4292
L95.8449 42.3082
" />
<path d="M95.8449 42.3082
L95.8449 41.8244
" />
<path d="M95.8449 41.8244
L95.9053 41.7034
" />
<path d="M95.9053 41.7034
L96.0263 41.6430
" />
<path d="M96.0263 41.6430
L96.2682 41.6430
" />
<path d="M96.2682 41.6430
L96.3891 41.7034
" />
<path d="M96.3891 41.7034
L96.4496 41.8244
" />
<path d="M96.4496 41.8244
L96.4496 41.9453
" />
<path d="M96.4496 41.9453
L95.8449 42.0663
" />
<path d="M96.9939 42.3687
L97.0544 42.4292
" />
<path d="M97.0544 42.4292
L96.9939 42.4896
" />
<path d="M96.9939 42.4896
L96.9335 42.4292
" />
<path d="M96.9335 42.4292
L96.9939 42.3687
" />
<path d="M96.9939 42.3687
L96.9939 42.4896
" />
<path d="M96.9939 41.7034
L97.0544 41.7639
" />
<path d="M97.0544 41.7639
L96.9939 41.8244
" />
<path d="M96.9939 41.8244
L96.9335 41.7639
" />
<path d="M96.9335 41.7639
L96.9939 41.7034
" />
<path d="M96.9939 41.7034
L96.9939 41.8244
" />
<path d="M99.1711 41.2196
L98.5663 41.2196
" />
<path d="M98.5663 41.2196
L98.5059 41.8244
" />
<path d="M98.5059 41.8244
L98.5663 41.7639
" />
<path d="M98.5663 41.7639
L98.6873 41.7034
" />
<path d="M98.6873 41.7034
L98.9897 41.7034
" />
<path d="M98.9897 41.7034
L99.1106 41.7639
" />
<path d="M99.1106 41.7639
L99.1711 41.8244
" />
<path d="M99.1711 41.8244
L99.2316 41.9453
" />
<path d="M99.2316 41.9453
L99.2316 42.2477
" />
<path d="M99.2316 42.2477
L99.1711 42.3687
" />
<path d="M99.1711 42.3687
L99.1106 42.4292
" />
<path d="M99.1106 42.4292
L98.9897 42.4896
" />
<path d="M98.9897 42.4896
L98.6873 42.4896
" />
<path d="M98.6873 42.4896
L98.5663 42.4292
" />
<path d="M98.5663 42.4292
L98.5059 42.3687
" />
<path d="M100.0177 41.2196
L100.1387 41.2196
" />
<path d="M100.1387 41.2196
L100.2596 41.2801
" />
<path d="M100.2596 41.2801
L100.3201 41.3406
" />
<path d="M100.3201 41.3406
L100.3806 41.4615
" />
<path d="M100.3806 41.4615
L100.4411 41.7034
" />
<path d="M100.4411 41.7034
L100.4411 42.0058
" />
<path d="M100.4411 42.0058
L100.3806 42.2477
" />
<path d="M100.3806 42.2477
L100.3201 42.3687
" />
<path d="M100.3201 42.3687
L100.2596 42.4292
" />
<path d="M100.2596 42.4292
L100.1387 42.4896
" />
<path d="M100.1387 42.4896
L100.0177 42.4896
" />
<path d="M100.0177 42.4896
L99.8968 42.4292
" />
<path d="M99.8968 42.4292
L99.8363 42.3687
" />
<path d="M99.8363 42.3687
L99.7758 42.2477
" />
<path d="M99.7758 42.2477
L99.7154 42.0058
" />
<path d="M99.7154 42.0058
L99.7154 41.7034
" />
<path d="M99.7154 41.7034
L99.7758 41.4615
" />
<path d="M99.7758 41.4615
L99.8363 41.3406
" />
<path d="M99.8363 41.3406
L99.8968 41.2801
" />
<path d="M99.8968 41.2801
L100.0177 41.2196
" />
</g></g>
<g style="fill:none; 
stroke:#840084; stroke-width:0.1524; stroke-opacity:1; 
stroke-linecap:round; stroke-linejoin:round;">
<text x="97.7802" y="40.0051"
textLength="12.6612" font-size="1.6933" lengthAdjust="spacingAndGlyphs"
text-anchor="middle" opacity="0" stroke-opacity="0">noisetemp: 0</text>
<g class="stroked-text"><desc>noisetemp: 0</desc>
<path d="M91.8535 39.1030
L91.8535 39.9496
" />
<path d="M91.8535 39.2239
L91.9140 39.1634
" />
<path d="M91.9140 39.1634
L92.0350 39.1030
" />
<path d="M92.0350 39.1030
L92.2164 39.1030
" />
<path d="M92.2164 39.1030
L92.3373 39.1634
" />
<path d="M92.3373 39.1634
L92.3978 39.2844
" />
<path d="M92.3978 39.2844
L92.3978 39.9496
" />
<path d="M93.1840 39.9496
L93.0630 39.8892
" />
<path d="M93.0630 39.8892
L93.0025 39.8287
" />
<path d="M93.0025 39.8287
L92.9421 39.7077
" />
<path d="M92.9421 39.7077
L92.9421 39.3449
" />
<path d="M92.9421 39.3449
L93.0025 39.2239
" />
<path d="M93.0025 39.2239
L93.0630 39.1634
" />
<path d="M93.0630 39.1634
L93.1840 39.1030
" />
<path d="M93.1840 39.1030
L93.3654 39.1030
" />
<path d="M93.3654 39.1030
L93.4863 39.1634
" />
<path d="M93.4863 39.1634
L93.5468 39.2239
" />
<path d="M93.5468 39.2239
L93.6073 39.3449
" />
<path d="M93.6073 39.3449
L93.6073 39.7077
" />
<path d="M93.6073 39.7077
L93.5468 39.8287
" />
<path d="M93.5468 39.8287
L93.4863 39.8892
" />
<path d="M93.4863 39.8892
L93.3654 39.9496
" />
<path d="M93.3654 39.9496
L93.1840 39.9496
" />
<path d="M94.1515 39.9496
L94.1515 39.1030
" />
<path d="M94.1515 38.6796
L94.0911 38.7401
" />
<path d="M94.0911 38.7401
L94.1515 38.8006
" />
<path d="M94.1515 38.8006
L94.2120 38.7401
" />
<path d="M94.2120 38.7401
L94.1515 38.6796
" />
<path d="M94.1515 38.6796
L94.1515 38.8006
" />
<path d="M94.6959 39.8892
L94.8168 39.9496
" />
<path d="M94.8168 39.9496
L95.0587 39.9496
" />
<path d="M95.0587 39.9496
L95.1797 39.8892
" />
<path d="M95.1797 39.8892
L95.2401 39.7682
" />
<path d="M95.2401 39.7682
L95.2401 39.7077
" />
<path d="M95.2401 39.7077
L95.1797 39.5868
" />
<path d="M95.1797 39.5868
L95.0587 39.5263
" />
<path d="M95.0587 39.5263
L94.8773 39.5263
" />
<path d="M94.8773 39.5263
L94.7563 39.4658
" />
<path d="M94.7563 39.4658
L94.6959 39.3449
" />
<path d="M94.6959 39.3449
L94.6959 39.2844
" />
<path d="M94.6959 39.2844
L94.7563 39.1634
" />
<path d="M94.7563 39.1634
L94.8773 39.1030
" />
<path d="M94.8773 39.1030
L95.0587 39.1030
" />
<path d="M95.0587 39.1030
L95.1797 39.1634
" />
<path d="M96.2682 39.8892
L96.1473 39.9496
" />
<path d="M96.1473 39.9496
L95.9054 39.9496
" />
<path d="M95.9054 39.9496
L95.7844 39.8892
" />
<path d="M95.7844 39.8892
L95.7240 39.7682
" />
<path d="M95.7240 39.7682
L95.7240 39.2844
" />
<path d="M95.7240 39.2844
L95.7844 39.1634
" />
<path d="M95.7844 39.1634
L95.9054 39.1030
" />
<path d="M95.9054 39.1030
L96.1473 39.1030
" />
<path d="M96.1473 39.1030
L96.2682 39.1634
" />
<path d="M96.2682 39.1634
L96.3287 39.2844
" />
<path d="M96.3287 39.2844
L96.3287 39.4053
" />
<path d="M96.3287 39.4053
L95.7240 39.5263
" />
<path d="M96.6916 39.1030
L97.1754 39.1030
" />
<path d="M96.8730 38.6796
L96.8730 39.7682
" />
<path d="M96.8730 39.7682
L96.9335 39.8892
" />
<path d="M96.9335 39.8892
L97.0545 39.9496
" />
<path d="M97.0545 39.9496
L97.1754 39.9496
" />
<path d="M98.0825 39.8892
L97.9616 39.9496
" />
<path d="M97.9616 39.9496
L97.7197 39.9496
" />
<path d="M97.7197 39.9496
L97.5987 39.8892
" />
<path d="M97.5987 39.8892
L97.5383 39.7682
" />
<path d="M97.5383 39.7682
L97.5383 39.2844
" />
<path d="M97.5383 39.2844
L97.5987 39.1634
" />
<path d="M97.5987 39.1634
L97.7197 39.1030
" />
<path d="M97.7197 39.1030
L97.9616 39.1030
" />
<path d="M97.9616 39.1030
L98.0825 39.1634
" />
<path d="M98.0825 39.1634
L98.1430 39.2844
" />
<path d="M98.1430 39.2844
L98.1430 39.4053
" />
<path d="M98.1430 39.4053
L97.5383 39.5263
" />
<path d="M98.6873 39.9496
L98.6873 39.1030
" />
<path d="M98.6873 39.2239
L98.7478 39.1634
" />
<path d="M98.7478 39.1634
L98.8688 39.1030
" />
<path d="M98.8688 39.1030
L99.0502 39.1030
" />
<path d="M99.0502 39.1030
L99.1711 39.1634
" />
<path d="M99.1711 39.1634
L99.2316 39.2844
" />
<path d="M99.2316 39.2844
L99.2316 39.9496
" />
<path d="M99.2316 39.2844
L99.2921 39.1634
" />
<path d="M99.2921 39.1634
L99.4130 39.1030
" />
<path d="M99.4130 39.1030
L99.5945 39.1030
" />
<path d="M99.5945 39.1030
L99.7154 39.1634
" />
<path d="M99.7154 39.1634
L99.7759 39.2844
" />
<path d="M99.7759 39.2844
L99.7759 39.9496
" />
<path d="M100.3806 39.1030
L100.3806 40.3730
" />
<path d="M100.3806 39.1634
L100.5016 39.1030
" />
<path d="M100.5016 39.1030
L100.7435 39.1030
" />
<path d="M100.7435 39.1030
L100.8644 39.1634
" />
<path d="M100.8644 39.1634
L100.9249 39.2239
" />
<path d="M100.9249 39.2239
L100.9854 39.3449
" />
<path d="M100.9854 39.3449
L100.9854 39.7077
" />
<path d="M100.9854 39.7077
L100.9249 39.8287
" />
<path d="M100.9249 39.8287
L100.8644 39.8892
" />
<path d="M100.8644 39.8892
L100.7435 39.9496
" />
<path d="M100.7435 39.9496
L100.5016 39.9496
" />
<path d="M100.5016 39.9496
L100.3806 39.8892
" />
<path d="M101.5296 39.8287
L101.5901 39.8892
" />
<path d="M101.5901 39.8892
L101.5296 39.9496
" />
<path d="M101.5296 39.9496
L101.4692 39.8892
" />
<path d="M101.4692 39.8892
L101.5296 39.8287
" />
<path d="M101.5296 39.8287
L101.5296 39.9496
" />
<path d="M101.5296 39.1634
L101.5901 39.2239
" />
<path d="M101.5901 39.2239
L101.5296 39.2844
" />
<path d="M101.5296 39.2844
L101.4692 39.2239
" />
<path d="M101.4692 39.2239
L101.5296 39.1634
" />
<path d="M101.5296 39.1634
L101.5296 39.2844
" />
<path d="M103.3439 38.6796
L103.4649 38.6796
" />
<path d="M103.4649 38.6796
L103.5858 38.7401
" />
<path d="M103.5858 38.7401
L103.6463 38.8006
" />
<path d="M103.6463 38.8006
L103.7068 38.9215
" />
<path d="M103.7068 38.9215
L103.7673 39.1634
" />
<path d="M103.7673 39.1634
L103.7673 39.4658
" />
<path d="M103.7673 39.4658
L103.7068 39.7077
" />
<path d="M103.7068 39.7077
L103.6463 39.8287
" />
<path d="M103.6463 39.8287
L103.5858 39.8892
" />
<path d="M103.5858 39.8892
L103.4649 39.9496
" />
<path d="M103.4649 39.9496
L103.3439 39.9496
" />
<path d="M103.3439 39.9496
L103.2230 39.8892
" />
<path d="M103.2230 39.8892
L103.1625 39.8287
" />
<path d="M103.1625 39.8287
L103.1020 39.7077
" />
<path d="M103.1020 39.7077
L103.0416 39.4658
" />
<path d="M103.0416 39.4658
L103.0416 39.1634
" />
<path d="M103.0416 39.1634
L103.1020 38.9215
" />
<path d="M103.1020 38.9215
L103.1625 38.8006
" />
<path d="M103.1625 38.8006
L103.2230 38.7401
" />
<path d="M103.2230 38.7401
L103.3439 38.6796
" />
</g><text x="97.3871" y="37.4651"
textLength="11.8750" font-size="1.6933" lengthAdjust="spacingAndGlyphs"
text-anchor="middle" opacity="0" stroke-opacity="0">noiseflow: 0</text>
<g class="stroked-text"><desc>noiseflow: 0</desc>
<path d="M91.8535 36.5630
L91.8535 37.4096
" />
<path d="M91.8535 36.6839
L91.9140 36.6234
" />
<path d="M91.9140 36.6234
L92.0350 36.5630
" />
<path d="M92.0350 36.5630
L92.2164 36.5630
" />
<path d="M92.2164 36.5630
L92.3373 36.6234
" />
<path d="M92.3373 36.6234
L92.3978 36.7444
" />
<path d="M92.3978 36.7444
L92.3978 37.4096
" />
<path d="M93.1840 37.4096
L93.0630 37.3492
" />
<path d="M93.0630 37.3492
L93.0025 37.2887
" />
<path d="M93.0025 37.2887
L92.9421 37.1677
" />
<path d="M92.9421 37.1677
L92.9421 36.8049
" />
<path d="M92.9421 36.8049
L93.0025 36.6839
" />
<path d="M93.0025 36.6839
L93.0630 36.6234
" />
<path d="M93.0630 36.6234
L93.1840 36.5630
" />
<path d="M93.1840 36.5630
L93.3654 36.5630
" />
<path d="M93.3654 36.5630
L93.4863 36.6234
" />
<path d="M93.4863 36.6234
L93.5468 36.6839
" />
<path d="M93.5468 36.6839
L93.6073 36.8049
" />
<path d="M93.6073 36.8049
L93.6073 37.1677
" />
<path d="M93.6073 37.1677
L93.5468 37.2887
" />
<path d="M93.5468 37.2887
L93.4863 37.3492
" />
<path d="M93.4863 37.3492
L93.3654 37.4096
" />
<path d="M93.3654 37.4096
L93.1840 37.4096
" />
<path d="M94.1515 37.4096
L94.1515 36.5630
" />
<path d="M94.1515 36.1396
L94.0911 36.2001
" />
<path d="M94.0911 36.2001
L94.1515 36.2606
" />
<path d="M94.1515 36.2606
L94.2120 36.2001
" />
<path d="M94.2120 36.2001
L94.1515 36.1396
" />
<path d="M94.1515 36.1396
L94.1515 36.2606
" />
<path d="M94.6959 37.3492
L94.8168 37.4096
" />
<path d="M94.8168 37.4096
L95.0587 37.4096
" />
<path d="M95.0587 37.4096
L95.1797 37.3492
" />
<path d="M95.1797 37.3492
L95.2401 37.2282
" />
<path d="M95.2401 37.2282
L95.2401 37.1677
" />
<path d="M95.2401 37.1677
L95.1797 37.0468
" />
<path d="M95.1797 37.0468
L95.0587 36.9863
" />
<path d="M95.0587 36.9863
L94.8773 36.9863
" />
<path d="M94.8773 36.9863
L94.7563 36.9258
" />
<path d="M94.7563 36.9258
L94.6959 36.8049
" />
<path d="M94.6959 36.8049
L94.6959 36.7444
" />
<path d="M94.6959 36.7444
L94.7563 36.6234
" />
<path d="M94.7563 36.6234
L94.8773 36.5630
" />
<path d="M94.8773 36.5630
L95.0587 36.5630
" />
<path d="M95.0587 36.5630
L95.1797 36.6234
" />
<path d="M96.2682 37.3492
L96.1473 37.4096
" />
<path d="M96.1473 37.4096
L95.9054 37.4096
" />
<path d="M95.9054 37.4096
L95.7844 37.3492
" />
<path d="M95.7844 37.3492
L95.7240 37.2282
" />
<path d="M95.7240 37.2282
L95.7240 36.7444
" />
<path d="M95.7240 36.7444
L95.7844 36.6234
" />
<path d="M95.7844 36.6234
L95.9054 36.5630
" />
<path d="M95.9054 36.5630
L96.1473 36.5630
" />
<path d="M96.1473 36.5630
L96.2682 36.6234
" />
<path d="M96.2682 36.6234
L96.3287 36.7444
" />
<path d="M96.3287 36.7444
L96.3287 36.8653
" />
<path d="M96.3287 36.8653
L95.7240 36.9863
" />
<path d="M96.6916 36.5630
L97.1754 36.5630
" />
<path d="M96.8730 37.4096
L96.8730 36.3211
" />
<path d="M96.8730 36.3211
L96.9335 36.2001
" />
<path d="M96.9335 36.2001
L97.0545 36.1396
" />
<path d="M97.0545 36.1396
L97.1754 36.1396
" />
<path d="M97.7802 37.4096
L97.6592 37.3492
" />
<path d="M97.6592 37.3492
L97.5987 37.2282
" />
<path d="M97.5987 37.2282
L97.5987 36.1396
" />
<path d="M98.4454 37.4096
L98.3244 37.3492
" />
<path d="M98.3244 37.3492
L98.2639 37.2887
" />
<path d="M98.2639 37.2887
L98.2035 37.1677
" />
<path d="M98.2035 37.1677
L98.2035 36.8049
" />
<path d="M98.2035 36.8049
L98.2639 36.6839
" />
<path d="M98.2639 36.6839
L98.3244 36.6234
" />
<path d="M98.3244 36.6234
L98.4454 36.5630
" />
<path d="M98.4454 36.5630
L98.6268 36.5630
" />
<path d="M98.6268 36.5630
L98.7477 36.6234
" />
<path d="M98.7477 36.6234
L98.8082 36.6839
" />
<path d="M98.8082 36.6839
L98.8687 36.8049
" />
<path d="M98.8687 36.8049
L98.8687 37.1677
" />
<path d="M98.8687 37.1677
L98.8082 37.2887
" />
<path d="M98.8082 37.2887
L98.7477 37.3492
" />
<path d="M98.7477 37.3492
L98.6268 37.4096
" />
<path d="M98.6268 37.4096
L98.4454 37.4096
" />
<path d="M99.2920 36.5630
L99.5339 37.4096
" />
<path d="M99.5339 37.4096
L99.7758 36.8049
" />
<path d="M99.7758 36.8049
L100.0177 37.4096
" />
<path d="M100.0177 37.4096
L100.2596 36.5630
" />
<path d="M100.7434 37.2887
L100.8039 37.3492
" />
<path d="M100.8039 37.3492
L100.7434 37.4096
" />
<path d="M100.7434 37.4096
L100.6830 37.3492
" />
<path d="M100.6830 37.3492
L100.7434 37.2887
" />
<path d="M100.7434 37.2887
L100.7434 37.4096
" />
<path d="M100.7434 36.6234
L100.8039 36.6839
" />
<path d="M100.8039 36.6839
L100.7434 36.7444
" />
<path d="M100.7434 36.7444
L100.6830 36.6839
" />
<path d="M100.6830 36.6839
L100.7434 36.6234
" />
<path d="M100.7434 36.6234
L100.7434 36.7444
" />
<path d="M102.5577 36.1396
L102.6787 36.1396
" />
<path d="M102.6787 36.1396
L102.7996 36.2001
" />
<path d="M102.7996 36.2001
L102.8601 36.2606
" />
<path d="M102.8601 36.2606
L102.9206 36.3815
" />
<path d="M102.9206 36.3815
L102.9811 36.6234
" />
<path d="M102.9811 36.6234
L102.9811 36.9258
" />
<path d="M102.9811 36.9258
L102.9206 37.1677
" />
<path d="M102.9206 37.1677
L102.8601 37.2887
" />
<path d="M102.8601 37.2887
L102.7996 37.3492
" />
<path d="M102.7996 37.3492
L102.6787 37.4096
" />
<path d="M102.6787 37.4096
L102.5577 37.4096
" />
<path d="M102.5577 37.4096
L102.4368 37.3492
" />
<path d="M102.4368 37.3492
L102.3763 37.2887
" />
<path d="M102.3763 37.2887
L102.3158 37.1677
" />
<path d="M102.3158 37.1677
L102.2554 36.9258
" />
<path d="M102.2554 36.9258
L102.2554 36.6234
" />
<path d="M102.2554 36.6234
L102.3158 36.3815
" />
<path d="M102.3158 36.3815
L102.3763 36.2606
" />
<path d="M102.3763 36.2606
L102.4368 36.2001
" />
<path d="M102.4368 36.2001
L102.5577 36.1396
" />
</g><text x="95.5123" y="34.9251"
textLength="8.1255" font-size="1.6933" lengthAdjust="spacingAndGlyphs"
text-anchor="middle" opacity="0" stroke-opacity="0">dcvar: 0</text>
<g class="stroked-text"><desc>dcvar: 0</desc>
<path d="M92.3978 34.8696
L92.3978 33.5996
" />
<path d="M92.3978 34.8092
L92.2769 34.8696
" />
<path d="M92.2769 34.8696
L92.0350 34.8696
" />
<path d="M92.0350 34.8696
L91.9140 34.8092
" />
<path d="M91.9140 34.8092
L91.8535 34.7487
" />
<path d="M91.8535 34.7487
L91.7931 34.6277
" />
<path d="M91.7931 34.6277
L91.7931 34.2649
" />
<path d="M91.7931 34.2649
L91.8535 34.1439
" />
<path d="M91.8535 34.1439
L91.9140 34.0834
" />
<path d="M91.9140 34.0834
L92.0350 34.0230
" />
<path d="M92.0350 34.0230
L92.2769 34.0230
" />
<path d="M92.2769 34.0230
L92.3978 34.0834
" />
<path d="M93.5468 34.8092
L93.4259 34.8696
" />
<path d="M93.4259 34.8696
L93.1840 34.8696
" />
<path d="M93.1840 34.8696
L93.0630 34.8092
" />
<path d="M93.0630 34.8092
L93.0025 34.7487
" />
<path d="M93.0025 34.7487
L92.9421 34.6277
" />
<path d="M92.9421 34.6277
L92.9421 34.2649
" />
<path d="M92.9421 34.2649
L93.0025 34.1439
" />
<path d="M93.0025 34.1439
L93.0630 34.0834
" />
<path d="M93.0630 34.0834
L93.1840 34.0230
" />
<path d="M93.1840 34.0230
L93.4259 34.0230
" />
<path d="M93.4259 34.0230
L93.5468 34.0834
" />
<path d="M93.9702 34.0230
L94.2726 34.8696
" />
<path d="M94.2726 34.8696
L94.5749 34.0230
" />
<path d="M95.6030 34.8696
L95.6030 34.2044
" />
<path d="M95.6030 34.2044
L95.5425 34.0834
" />
<path d="M95.5425 34.0834
L95.4216 34.0230
" />
<path d="M95.4216 34.0230
L95.1797 34.0230
" />
<path d="M95.1797 34.0230
L95.0587 34.0834
" />
<path d="M95.6030 34.8092
L95.4821 34.8696
" />
<path d="M95.4821 34.8696
L95.1797 34.8696
" />
<path d="M95.1797 34.8696
L95.0587 34.8092
" />
<path d="M95.0587 34.8092
L94.9983 34.6882
" />
<path d="M94.9983 34.6882
L94.9983 34.5672
" />
<path d="M94.9983 34.5672
L95.0587 34.4463
" />
<path d="M95.0587 34.4463
L95.1797 34.3858
" />
<path d="M95.1797 34.3858
L95.4821 34.3858
" />
<path d="M95.4821 34.3858
L95.6030 34.3253
" />
<path d="M96.2077 34.8696
L96.2077 34.0230
" />
<path d="M96.2077 34.2649
L96.2682 34.1439
" />
<path d="M96.2682 34.1439
L96.3287 34.0834
" />
<path d="M96.3287 34.0834
L96.4496 34.0230
" />
<path d="M96.4496 34.0230
L96.5706 34.0230
" />
<path d="M96.9939 34.7487
L97.0544 34.8092
" />
<path d="M97.0544 34.8092
L96.9939 34.8696
" />
<path d="M96.9939 34.8696
L96.9335 34.8092
" />
<path d="M96.9335 34.8092
L96.9939 34.7487
" />
<path d="M96.9939 34.7487
L96.9939 34.8696
" />
<path d="M96.9939 34.0834
L97.0544 34.1439
" />
<path d="M97.0544 34.1439
L96.9939 34.2044
" />
<path d="M96.9939 34.2044
L96.9335 34.1439
" />
<path d="M96.9335 34.1439
L96.9939 34.0834
" />
<path d="M96.9939 34.0834
L96.9939 34.2044
" />
<path d="M98.8082 33.5996
L98.9292 33.5996
" />
<path d="M98.9292 33.5996
L99.0501 33.6601
" />
<path d="M99.0501 33.6601
L99.1106 33.7206
" />
<path d="M99.1106 33.7206
L99.1711 33.8415
" />
<path d="M99.1711 33.8415
L99.2316 34.0834
" />
<path d="M99.2316 34.0834
L99.2316 34.3858
" />
<path d="M99.2316 34.3858
L99.1711 34.6277
" />
<path d="M99.1711 34.6277
L99.1106 34.7487
" />
<path d="M99.1106 34.7487
L99.0501 34.8092
" />
<path d="M99.0501 34.8092
L98.9292 34.8696
" />
<path d="M98.9292 34.8696
L98.8082 34.8696
" />
<path d="M98.8082 34.8696
L98.6873 34.8092
" />
<path d="M98.6873 34.8092
L98.6268 34.7487
" />
<path d="M98.6268 34.7487
L98.5663 34.6277
" />
<path d="M98.5663 34.6277
L98.5059 34.3858
" />
<path d="M98.5059 34.3858
L98.5059 34.0834
" />
<path d="M98.5059 34.0834
L98.5663 33.8415
" />
<path d="M98.5663 33.8415
L98.6268 33.7206
" />
<path d="M98.6268 33.7206
L98.6873 33.6601
" />
<path d="M98.6873 33.6601
L98.8082 33.5996
" />
</g><text x="96.7823" y="32.3851"
textLength="10.6654" font-size="1.6933" lengthAdjust="spacingAndGlyphs"
text-anchor="middle" opacity="0" stroke-opacity="0">dcvarlot: 0</text>
<g class="stroked-text"><desc>dcvarlot: 0</desc>
<path d="M92.3978 32.3296
L92.3978 31.0596
" />
<path d="M92.3978 32.2692
L92.2769 32.3296
" />
<path d="M92.2769 32.3296
L92.0350 32.3296
" />
<path d="M92.0350 32.3296
L91.9140 32.2692
" />
<path d="M91.9140 32.2692
L91.8535 32.2087
" />
<path d="M91.8535 32.2087
L91.7931 32.0877
" />
<path d="M91.7931 32.0877
L91.7931 31.7249
" />
<path d="M91.7931 31.7249
L91.8535 31.6039
" />
<path d="M91.8535 31.6039
L91.9140 31.5434
" />
<path d="M91.9140 31.5434
L92.0350 31.4830
" />
<path d="M92.0350 31.4830
L92.2769 31.4830
" />
<path d="M92.2769 31.4830
L92.3978 31.5434
" />
<path d="M93.5468 32.2692
L93.4259 32.3296
" />
<path d="M93.4259 32.3296
L93.1840 32.3296
" />
<path d="M93.1840 32.3296
L93.0630 32.2692
" />
<path d="M93.0630 32.2692
L93.0025 32.2087
" />
<path d="M93.0025 32.2087
L92.9421 32.0877
" />
<path d="M92.9421 32.0877
L92.9421 31.7249
" />
<path d="M92.9421 31.7249
L93.0025 31.6039
" />
<path d="M93.0025 31.6039
L93.0630 31.5434
" />
<path d="M93.0630 31.5434
L93.1840 31.4830
" />
<path d="M93.1840 31.4830
L93.4259 31.4830
" />
<path d="M93.4259 31.4830
L93.5468 31.5434
" />
<path d="M93.9702 31.4830
L94.2726 32.3296
" />
<path d="M94.2726 32.3296
L94.5749 31.4830
" />
<path d="M95.6030 32.3296
L95.6030 31.6644
" />
<path d="M95.6030 31.6644
L95.5425 31.5434
" />
<path d="M95.5425 31.5434
L95.4216 31.4830
" />
<path d="M95.4216 31.4830
L95.1797 31.4830
" />
<path d="M95.1797 31.4830
L95.0587 31.5434
" />
<path d="M95.6030 32.2692
L95.4821 32.3296
" />
<path d="M95.4821 32.3296
L95.1797 32.3296
" />
<path d="M95.1797 32.3296
L95.0587 32.2692
" />
<path d="M95.0587 32.2692
L94.9983 32.1482
" />
<path d="M94.9983 32.1482
L94.9983 32.0272
" />
<path d="M94.9983 32.0272
L95.0587 31.9063
" />
<path d="M95.0587 31.9063
L95.1797 31.8458
" />
<path d="M95.1797 31.8458
L95.4821 31.8458
" />
<path d="M95.4821 31.8458
L95.6030 31.7853
" />
<path d="M96.2077 32.3296
L96.2077 31.4830
" />
<path d="M96.2077 31.7249
L96.2682 31.6039
" />
<path d="M96.2682 31.6039
L96.3287 31.5434
" />
<path d="M96.3287 31.5434
L96.4496 31.4830
" />
<path d="M96.4496 31.4830
L96.5706 31.4830
" />
<path d="M97.1754 32.3296
L97.0544 32.2692
" />
<path d="M97.0544 32.2692
L96.9939 32.1482
" />
<path d="M96.9939 32.1482
L96.9939 31.0596
" />
<path d="M97.8406 32.3296
L97.7196 32.2692
" />
<path d="M97.7196 32.2692
L97.6591 32.2087
" />
<path d="M97.6591 32.2087
L97.5987 32.0877
" />
<path d="M97.5987 32.0877
L97.5987 31.7249
" />
<path d="M97.5987 31.7249
L97.6591 31.6039
" />
<path d="M97.6591 31.6039
L97.7196 31.5434
" />
<path d="M97.7196 31.5434
L97.8406 31.4830
" />
<path d="M97.8406 31.4830
L98.0220 31.4830
" />
<path d="M98.0220 31.4830
L98.1429 31.5434
" />
<path d="M98.1429 31.5434
L98.2034 31.6039
" />
<path d="M98.2034 31.6039
L98.2639 31.7249
" />
<path d="M98.2639 31.7249
L98.2639 32.0877
" />
<path d="M98.2639 32.0877
L98.2034 32.2087
" />
<path d="M98.2034 32.2087
L98.1429 32.2692
" />
<path d="M98.1429 32.2692
L98.0220 32.3296
" />
<path d="M98.0220 32.3296
L97.8406 32.3296
" />
<path d="M98.6267 31.4830
L99.1105 31.4830
" />
<path d="M98.8081 31.0596
L98.8081 32.1482
" />
<path d="M98.8081 32.1482
L98.8686 32.2692
" />
<path d="M98.8686 32.2692
L98.9896 32.3296
" />
<path d="M98.9896 32.3296
L99.1105 32.3296
" />
<path d="M99.5338 32.2087
L99.5943 32.2692
" />
<path d="M99.5943 32.2692
L99.5338 32.3296
" />
<path d="M99.5338 32.3296
L99.4734 32.2692
" />
<path d="M99.4734 32.2692
L99.5338 32.2087
" />
<path d="M99.5338 32.2087
L99.5338 32.3296
" />
<path d="M99.5338 31.5434
L99.5943 31.6039
" />
<path d="M99.5943 31.6039
L99.5338 31.6644
" />
<path d="M99.5338 31.6644
L99.4734 31.6039
" />
<path d="M99.4734 31.6039
L99.5338 31.5434
" />
<path d="M99.5338 31.5434
L99.5338 31.6644
" />
<path d="M101.3481 31.0596
L101.4691 31.0596
" />
<path d="M101.4691 31.0596
L101.5900 31.1201
" />
<path d="M101.5900 31.1201
L101.6505 31.1806
" />
<path d="M101.6505 31.1806
L101.7110 31.3015
" />
<path d="M101.7110 31.3015
L101.7715 31.5434
" />
<path d="M101.7715 31.5434
L101.7715 31.8458
" />
<path d="M101.7715 31.8458
L101.7110 32.0877
" />
<path d="M101.7110 32.0877
L101.6505 32.2087
" />
<path d="M101.6505 32.2087
L101.5900 32.2692
" />
<path d="M101.5900 32.2692
L101.4691 32.3296
" />
<path d="M101.4691 32.3296
L101.3481 32.3296
" />
<path d="M101.3481 32.3296
L101.2272 32.2692
" />
<path d="M101.2272 32.2692
L101.1667 32.2087
" />
<path d="M101.1667 32.2087
L101.1062 32.0877
" />
<path d="M101.1062 32.0877
L101.0458 31.8458
" />
<path d="M101.0458 31.8458
L101.0458 31.5434
" />
<path d="M101.0458 31.5434
L101.1062 31.3015
" />
<path d="M101.1062 31.3015
L101.1667 31.1806
" />
<path d="M101.1667 31.1806
L101.2272 31.1201
" />
<path d="M101.2272 31.1201
L101.3481 31.0596
" />
</g></g>
<g style="fill:#FFFFC2; fill-opacity:1.0000; stroke:none;">
<circle cx="21.5900" cy="38.1000" r="2.5400" /> 
<path style="fill:none; 
stroke:#840000; stroke-width:0.1524; stroke-opacity:1; 
stroke-linecap:round; stroke-linejoin:round;fill:none"
d="M 21.5900,35.5600
21.5900,40.6400
" /> 
</g>
<g style="fill:none; 
stroke:#840000; stroke-width:0.1524; stroke-opacity:1; 
stroke-linecap:round; stroke-linejoin:round;">
<circle cx="21.5900" cy="38.1000" r="2.5400" /> 
<text x="20.5740" y="35.1790"
textLength="1.7756" font-size="1.6933" lengthAdjust="spacingAndGlyphs"
text-anchor="middle" opacity="0" stroke-opacity="0">+</text>
<g class="stroked-text"><desc>+</desc>
<path d="M20.0901 34.6397
L21.0578 34.6397
" />
<path d="M20.5739 35.1235
L20.5739 34.1559
" />
</g><text x="20.5740" y="42.0370"
textLength="1.7756" font-size="1.6933" lengthAdjust="spacingAndGlyphs"
text-anchor="middle" opacity="0" stroke-opacity="0">-</text>
<g class="stroked-text"><desc>-</desc>
<path d="M20.0901 41.4977
L21.0578 41.4977
" />
</g><path d="M21.5900 35.5600
L21.5900 33.0200
" />
<path d="M21.5900 40.6400
L21.5900 43.1800
" />
</g>
<g style="fill:none; 
stroke:#006464; stroke-width:0.1524; stroke-opacity:1; 
stroke-linecap:round; stroke-linejoin:round;">
<text x="26.6602" y="33.5279"
textLength="2.5013" font-size="1.6933" lengthAdjust="spacingAndGlyphs"
text-anchor="middle" opacity="0" stroke-opacity="0">V3</text>
<g class="stroked-text"><desc>V3</desc>
<path d="M25.6321 32.2024
L26.0554 33.4724
" />
<path d="M26.0554 33.4724
L26.4788 32.2024
" />
<path d="M26.7812 32.2024
L27.5674 32.2024
" />
<path d="M27.5674 32.2024
L27.1440 32.6862
" />
<path d="M27.1440 32.6862
L27.3255 32.6862
" />
<path d="M27.3255 32.6862
L27.4464 32.7467
" />
<path d="M27.4464 32.7467
L27.5069 32.8072
" />
<path d="M27.5069 32.8072
L27.5674 32.9281
" />
<path d="M27.5674 32.9281
L27.5674 33.2305
" />
<path d="M27.5674 33.2305
L27.5069 33.3515
" />
<path d="M27.5069 33.3515
L27.4464 33.4120
" />
<path d="M27.4464 33.4120
L27.3255 33.4724
" />
<path d="M27.3255 33.4724
L26.9626 33.4724
" />
<path d="M26.9626 33.4724
L26.8417 33.4120
" />
<path d="M26.8417 33.4120
L26.7812 33.3515
" />
</g><text x="31.6193" y="36.0679"
textLength="12.4194" font-size="1.6933" lengthAdjust="spacingAndGlyphs"
text-anchor="middle" opacity="0" stroke-opacity="0">Value: {V_in}</text>
<g class="stroked-text"><desc>Value: {V_in}</desc>
<path d="M25.6321 34.7424
L26.0554 36.0124
" />
<path d="M26.0554 36.0124
L26.4788 34.7424
" />
<path d="M27.4464 36.0124
L27.4464 35.3472
" />
<path d="M27.4464 35.3472
L27.3859 35.2262
" />
<path d="M27.3859 35.2262
L27.2650 35.1658
" />
<path d="M27.2650 35.1658
L27.0231 35.1658
" />
<path d="M27.0231 35.1658
L26.9021 35.2262
" />
<path d="M27.4464 35.9520
L27.3255 36.0124
" />
<path d="M27.3255 36.0124
L27.0231 36.0124
" />
<path d="M27.0231 36.0124
L26.9021 35.9520
" />
<path d="M26.9021 35.9520
L26.8417 35.8310
" />
<path d="M26.8417 35.8310
L26.8417 35.7100
" />
<path d="M26.8417 35.7100
L26.9021 35.5891
" />
<path d="M26.9021 35.5891
L27.0231 35.5286
" />
<path d="M27.0231 35.5286
L27.3255 35.5286
" />
<path d="M27.3255 35.5286
L27.4464 35.4681
" />
<path d="M28.2326 36.0124
L28.1116 35.9520
" />
<path d="M28.1116 35.9520
L28.0511 35.8310
" />
<path d="M28.0511 35.8310
L28.0511 34.7424
" />
<path d="M29.2606 35.1658
L29.2606 36.0124
" />
<path d="M28.7163 35.1658
L28.7163 35.8310
" />
<path d="M28.7163 35.8310
L28.7768 35.9520
" />
<path d="M28.7768 35.9520
L28.8978 36.0124
" />
<path d="M28.8978 36.0124
L29.0792 36.0124
" />
<path d="M29.0792 36.0124
L29.2001 35.9520
" />
<path d="M29.2001 35.9520
L29.2606 35.8915
" />
<path d="M30.3491 35.9520
L30.2282 36.0124
" />
<path d="M30.2282 36.0124
L29.9863 36.0124
" />
<path d="M29.9863 36.0124
L29.8653 35.9520
" />
<path d="M29.8653 35.9520
L29.8049 35.8310
" />
<path d="M29.8049 35.8310
L29.8049 35.3472
" />
<path d="M29.8049 35.3472
L29.8653 35.2262
" />
<path d="M29.8653 35.2262
L29.9863 35.1658
" />
<path d="M29.9863 35.1658
L30.2282 35.1658
" />
<path d="M30.2282 35.1658
L30.3491 35.2262
" />
<path d="M30.3491 35.2262
L30.4096 35.3472
" />
<path d="M30.4096 35.3472
L30.4096 35.4681
" />
<path d="M30.4096 35.4681
L29.8049 35.5891
" />
<path d="M30.9539 35.8915
L31.0144 35.9520
" />
<path d="M31.0144 35.9520
L30.9539 36.0124
" />
<path d="M30.9539 36.0124
L30.8935 35.9520
" />
<path d="M30.8935 35.9520
L30.9539 35.8915
" />
<path d="M30.9539 35.8915
L30.9539 36.0124
" />
<path d="M30.9539 35.2262
L31.0144 35.2867
" />
<path d="M31.0144 35.2867
L30.9539 35.3472
" />
<path d="M30.9539 35.3472
L30.8935 35.2867
" />
<path d="M30.8935 35.2867
L30.9539 35.2262
" />
<path d="M30.9539 35.2262
L30.9539 35.3472
" />
<path d="M32.8892 36.4962
L32.8287 36.4962
" />
<path d="M32.8287 36.4962
L32.7078 36.4358
" />
<path d="M32.7078 36.4358
L32.6473 36.3148
" />
<path d="M32.6473 36.3148
L32.6473 35.7100
" />
<path d="M32.6473 35.7100
L32.5868 35.5891
" />
<path d="M32.5868 35.5891
L32.4659 35.5286
" />
<path d="M32.4659 35.5286
L32.5868 35.4681
" />
<path d="M32.5868 35.4681
L32.6473 35.3472
" />
<path d="M32.6473 35.3472
L32.6473 34.7424
" />
<path d="M32.6473 34.7424
L32.7078 34.6215
" />
<path d="M32.7078 34.6215
L32.8287 34.5610
" />
<path d="M32.8287 34.5610
L32.8892 34.5610
" />
<path d="M33.1916 34.7424
L33.6149 36.0124
" />
<path d="M33.6149 36.0124
L34.0383 34.7424
" />
<path d="M34.1593 36.1334
L35.1269 36.1334
" />
<path d="M35.4292 36.0124
L35.4292 35.1658
" />
<path d="M35.4292 34.7424
L35.3688 34.8029
" />
<path d="M35.3688 34.8029
L35.4292 34.8634
" />
<path d="M35.4292 34.8634
L35.4897 34.8029
" />
<path d="M35.4897 34.8029
L35.4292 34.7424
" />
<path d="M35.4292 34.7424
L35.4292 34.8634
" />
<path d="M36.0340 35.1658
L36.0340 36.0124
" />
<path d="M36.0340 35.2867
L36.0945 35.2262
" />
<path d="M36.0945 35.2262
L36.2155 35.1658
" />
<path d="M36.2155 35.1658
L36.3969 35.1658
" />
<path d="M36.3969 35.1658
L36.5178 35.2262
" />
<path d="M36.5178 35.2262
L36.5783 35.3472
" />
<path d="M36.5783 35.3472
L36.5783 36.0124
" />
<path d="M37.0621 36.4962
L37.1226 36.4962
" />
<path d="M37.1226 36.4962
L37.2435 36.4358
" />
<path d="M37.2435 36.4358
L37.3040 36.3148
" />
<path d="M37.3040 36.3148
L37.3040 35.7100
" />
<path d="M37.3040 35.7100
L37.3645 35.5891
" />
<path d="M37.3645 35.5891
L37.4854 35.5286
" />
<path d="M37.4854 35.5286
L37.3645 35.4681
" />
<path d="M37.3645 35.4681
L37.3040 35.3472
" />
<path d="M37.3040 35.3472
L37.3040 34.7424
" />
<path d="M37.3040 34.7424
L37.2435 34.6215
" />
<path d="M37.2435 34.6215
L37.1226 34.5610
" />
<path d="M37.1226 34.5610
L37.0621 34.5610
" />
</g></g>
<g style="fill:none; 
stroke:#840084; stroke-width:0.1524; stroke-opacity:1; 
stroke-linecap:round; stroke-linejoin:round;">
<text x="29.4119" y="38.6079"
textLength="8.0046" font-size="1.6933" lengthAdjust="spacingAndGlyphs"
text-anchor="middle" opacity="0" stroke-opacity="0">noise: 0</text>
<g class="stroked-text"><desc>noise: 0</desc>
<path d="M25.8135 37.7058
L25.8135 38.5524
" />
<path d="M25.8135 37.8267
L25.8740 37.7662
" />
<path d="M25.8740 37.7662
L25.9950 37.7058
" />
<path d="M25.9950 37.7058
L26.1764 37.7058
" />
<path d="M26.1764 37.7058
L26.2973 37.7662
" />
<path d="M26.2973 37.7662
L26.3578 37.8872
" />
<path d="M26.3578 37.8872
L26.3578 38.5524
" />
<path d="M27.1440 38.5524
L27.0230 38.4920
" />
<path d="M27.0230 38.4920
L26.9625 38.4315
" />
<path d="M26.9625 38.4315
L26.9021 38.3105
" />
<path d="M26.9021 38.3105
L26.9021 37.9477
" />
<path d="M26.9021 37.9477
L26.9625 37.8267
" />
<path d="M26.9625 37.8267
L27.0230 37.7662
" />
<path d="M27.0230 37.7662
L27.1440 37.7058
" />
<path d="M27.1440 37.7058
L27.3254 37.7058
" />
<path d="M27.3254 37.7058
L27.4463 37.7662
" />
<path d="M27.4463 37.7662
L27.5068 37.8267
" />
<path d="M27.5068 37.8267
L27.5673 37.9477
" />
<path d="M27.5673 37.9477
L27.5673 38.3105
" />
<path d="M27.5673 38.3105
L27.5068 38.4315
" />
<path d="M27.5068 38.4315
L27.4463 38.4920
" />
<path d="M27.4463 38.4920
L27.3254 38.5524
" />
<path d="M27.3254 38.5524
L27.1440 38.5524
" />
<path d="M28.1115 38.5524
L28.1115 37.7058
" />
<path d="M28.1115 37.2824
L28.0511 37.3429
" />
<path d="M28.0511 37.3429
L28.1115 37.4034
" />
<path d="M28.1115 37.4034
L28.1720 37.3429
" />
<path d="M28.1720 37.3429
L28.1115 37.2824
" />
<path d="M28.1115 37.2824
L28.1115 37.4034
" />
<path d="M28.6559 38.4920
L28.7768 38.5524
" />
<path d="M28.7768 38.5524
L29.0187 38.5524
" />
<path d="M29.0187 38.5524
L29.1397 38.4920
" />
<path d="M29.1397 38.4920
L29.2001 38.3710
" />
<path d="M29.2001 38.3710
L29.2001 38.3105
" />
<path d="M29.2001 38.3105
L29.1397 38.1896
" />
<path d="M29.1397 38.1896
L29.0187 38.1291
" />
<path d="M29.0187 38.1291
L28.8373 38.1291
" />
<path d="M28.8373 38.1291
L28.7163 38.0686
" />
<path d="M28.7163 38.0686
L28.6559 37.9477
" />
<path d="M28.6559 37.9477
L28.6559 37.8872
" />
<path d="M28.6559 37.8872
L28.7163 37.7662
" />
<path d="M28.7163 37.7662
L28.8373 37.7058
" />
<path d="M28.8373 37.7058
L29.0187 37.7058
" />
<path d="M29.0187 37.7058
L29.1397 37.7662
" />
<path d="M30.2282 38.4920
L30.1073 38.5524
" />
<path d="M30.1073 38.5524
L29.8654 38.5524
" />
<path d="M29.8654 38.5524
L29.7444 38.4920
" />
<path d="M29.7444 38.4920
L29.6840 38.3710
" />
<path d="M29.6840 38.3710
L29.6840 37.8872
" />
<path d="M29.6840 37.8872
L29.7444 37.7662
" />
<path d="M29.7444 37.7662
L29.8654 37.7058
" />
<path d="M29.8654 37.7058
L30.1073 37.7058
" />
<path d="M30.1073 37.7058
L30.2282 37.7662
" />
<path d="M30.2282 37.7662
L30.2887 37.8872
" />
<path d="M30.2887 37.8872
L30.2887 38.0081
" />
<path d="M30.2887 38.0081
L29.6840 38.1291
" />
<path d="M30.8330 38.4315
L30.8935 38.4920
" />
<path d="M30.8935 38.4920
L30.8330 38.5524
" />
<path d="M30.8330 38.5524
L30.7726 38.4920
" />
<path d="M30.7726 38.4920
L30.8330 38.4315
" />
<path d="M30.8330 38.4315
L30.8330 38.5524
" />
<path d="M30.8330 37.7662
L30.8935 37.8267
" />
<path d="M30.8935 37.8267
L30.8330 37.8872
" />
<path d="M30.8330 37.8872
L30.7726 37.8267
" />
<path d="M30.7726 37.8267
L30.8330 37.7662
" />
<path d="M30.8330 37.7662
L30.8330 37.8872
" />
<path d="M32.6473 37.2824
L32.7683 37.2824
" />
<path d="M32.7683 37.2824
L32.8892 37.3429
" />
<path d="M32.8892 37.3429
L32.9497 37.4034
" />
<path d="M32.9497 37.4034
L33.0102 37.5243
" />
<path d="M33.0102 37.5243
L33.0707 37.7662
" />
<path d="M33.0707 37.7662
L33.0707 38.0686
" />
<path d="M33.0707 38.0686
L33.0102 38.3105
" />
<path d="M33.0102 38.3105
L32.9497 38.4315
" />
<path d="M32.9497 38.4315
L32.8892 38.4920
" />
<path d="M32.8892 38.4920
L32.7683 38.5524
" />
<path d="M32.7683 38.5524
L32.6473 38.5524
" />
<path d="M32.6473 38.5524
L32.5264 38.4920
" />
<path d="M32.5264 38.4920
L32.4659 38.4315
" />
<path d="M32.4659 38.4315
L32.4054 38.3105
" />
<path d="M32.4054 38.3105
L32.3450 38.0686
" />
<path d="M32.3450 38.0686
L32.3450 37.7662
" />
<path d="M32.3450 37.7662
L32.4054 37.5243
" />
<path d="M32.4054 37.5243
L32.4659 37.4034
" />
<path d="M32.4659 37.4034
L32.5264 37.3429
" />
<path d="M32.5264 37.3429
L32.6473 37.2824
" />
</g><text x="28.0209" y="41.1479"
textLength="5.2227" font-size="1.6933" lengthAdjust="spacingAndGlyphs"
text-anchor="middle" opacity="0" stroke-opacity="0">dc: 0</text>
<g class="stroked-text"><desc>dc: 0</desc>
<path d="M26.3578 41.0924
L26.3578 39.8224
" />
<path d="M26.3578 41.0320
L26.2369 41.0924
" />
<path d="M26.2369 41.0924
L25.9950 41.0924
" />
<path d="M25.9950 41.0924
L25.8740 41.0320
" />
<path d="M25.8740 41.0320
L25.8135 40.9715
" />
<path d="M25.8135 40.9715
L25.7531 40.8505
" />
<path d="M25.7531 40.8505
L25.7531 40.4877
" />
<path d="M25.7531 40.4877
L25.8135 40.3667
" />
<path d="M25.8135 40.3667
L25.8740 40.3062
" />
<path d="M25.8740 40.3062
L25.9950 40.2458
" />
<path d="M25.9950 40.2458
L26.2369 40.2458
" />
<path d="M26.2369 40.2458
L26.3578 40.3062
" />
<path d="M27.5068 41.0320
L27.3859 41.0924
" />
<path d="M27.3859 41.0924
L27.1440 41.0924
" />
<path d="M27.1440 41.0924
L27.0230 41.0320
" />
<path d="M27.0230 41.0320
L26.9625 40.9715
" />
<path d="M26.9625 40.9715
L26.9021 40.8505
" />
<path d="M26.9021 40.8505
L26.9021 40.4877
" />
<path d="M26.9021 40.4877
L26.9625 40.3667
" />
<path d="M26.9625 40.3667
L27.0230 40.3062
" />
<path d="M27.0230 40.3062
L27.1440 40.2458
" />
<path d="M27.1440 40.2458
L27.3859 40.2458
" />
<path d="M27.3859 40.2458
L27.5068 40.3062
" />
<path d="M28.0511 40.9715
L28.1116 41.0320
" />
<path d="M28.1116 41.0320
L28.0511 41.0924
" />
<path d="M28.0511 41.0924
L27.9907 41.0320
" />
<path d="M27.9907 41.0320
L28.0511 40.9715
" />
<path d="M28.0511 40.9715
L28.0511 41.0924
" />
<path d="M28.0511 40.3062
L28.1116 40.3667
" />
<path d="M28.1116 40.3667
L28.0511 40.4272
" />
<path d="M28.0511 40.4272
L27.9907 40.3667
" />
<path d="M27.9907 40.3667
L28.0511 40.3062
" />
<path d="M28.0511 40.3062
L28.0511 40.4272
" />
<path d="M29.8654 39.8224
L29.9864 39.8224
" />
<path d="M29.9864 39.8224
L30.1073 39.8829
" />
<path d="M30.1073 39.8829
L30.1678 39.9434
" />
<path d="M30.1678 39.9434
L30.2283 40.0643
" />
<path d="M30.2283 40.0643
L30.2888 40.3062
" />
<path d="M30.2888 40.3062
L30.2888 40.6086
" />
<path d="M30.2888 40.6086
L30.2283 40.8505
" />
<path d="M30.2283 40.8505
L30.1678 40.9715
" />
<path d="M30.1678 40.9715
L30.1073 41.0320
" />
<path d="M30.1073 41.0320
L29.9864 41.0924
" />
<path d="M29.9864 41.0924
L29.8654 41.0924
" />
<path d="M29.8654 41.0924
L29.7445 41.0320
" />
<path d="M29.7445 41.0320
L29.6840 40.9715
" />
<path d="M29.6840 40.9715
L29.6235 40.8505
" />
<path d="M29.6235 40.8505
L29.5631 40.6086
" />
<path d="M29.5631 40.6086
L29.5631 40.3062
" />
<path d="M29.5631 40.3062
L29.6235 40.0643
" />
<path d="M29.6235 40.0643
L29.6840 39.9434
" />
<path d="M29.6840 39.9434
L29.7445 39.8829
" />
<path d="M29.7445 39.8829
L29.8654 39.8224
" />
</g><text x="29.4723" y="43.6879"
textLength="8.1255" font-size="1.6933" lengthAdjust="spacingAndGlyphs"
text-anchor="middle" opacity="0" stroke-opacity="0">dcvar: 0</text>
<g class="stroked-text"><desc>dcvar: 0</desc>
<path d="M26.3578 43.6324
L26.3578 42.3624
" />
<path d="M26.3578 43.5720
L26.2369 43.6324
" />
<path d="M26.2369 43.6324
L25.9950 43.6324
" />
<path d="M25.9950 43.6324
L25.8740 43.5720
" />
<path d="M25.8740 43.5720
L25.8135 43.5115
" />
<path d="M25.8135 43.5115
L25.7531 43.3905
" />
<path d="M25.7531 43.3905
L25.7531 43.0277
" />
<path d="M25.7531 43.0277
L25.8135 42.9067
" />
<path d="M25.8135 42.9067
L25.8740 42.8462
" />
<path d="M25.8740 42.8462
L25.9950 42.7858
" />
<path d="M25.9950 42.7858
L26.2369 42.7858
" />
<path d="M26.2369 42.7858
L26.3578 42.8462
" />
<path d="M27.5068 43.5720
L27.3859 43.6324
" />
<path d="M27.3859 43.6324
L27.1440 43.6324
" />
<path d="M27.1440 43.6324
L27.0230 43.5720
" />
<path d="M27.0230 43.5720
L26.9625 43.5115
" />
<path d="M26.9625 43.5115
L26.9021 43.3905
" />
<path d="M26.9021 43.3905
L26.9021 43.0277
" />
<path d="M26.9021 43.0277
L26.9625 42.9067
" />
<path d="M26.9625 42.9067
L27.0230 42.8462
" />
<path d="M27.0230 42.8462
L27.1440 42.7858
" />
<path d="M27.1440 42.7858
L27.3859 42.7858
" />
<path d="M27.3859 42.7858
L27.5068 42.8462
" />
<path d="M27.9302 42.7858
L28.2326 43.6324
" />
<path d="M28.2326 43.6324
L28.5349 42.7858
" />
<path d="M29.5630 43.6324
L29.5630 42.9672
" />
<path d="M29.5630 42.9672
L29.5025 42.8462
" />
<path d="M29.5025 42.8462
L29.3816 42.7858
" />
<path d="M29.3816 42.7858
L29.1397 42.7858
" />
<path d="M29.1397 42.7858
L29.0187 42.8462
" />
<path d="M29.5630 43.5720
L29.4421 43.6324
" />
<path d="M29.4421 43.6324
L29.1397 43.6324
" />
<path d="M29.1397 43.6324
L29.0187 43.5720
" />
<path d="M29.0187 43.5720
L28.9583 43.4510
" />
<path d="M28.9583 43.4510
L28.9583 43.3300
" />
<path d="M28.9583 43.3300
L29.0187 43.2091
" />
<path d="M29.0187 43.2091
L29.1397 43.1486
" />
<path d="M29.1397 43.1486
L29.4421 43.1486
" />
<path d="M29.4421 43.1486
L29.5630 43.0881
" />
<path d="M30.1677 43.6324
L30.1677 42.7858
" />
<path d="M30.1677 43.0277
L30.2282 42.9067
" />
<path d="M30.2282 42.9067
L30.2887 42.8462
" />
<path d="M30.2887 42.8462
L30.4096 42.7858
" />
<path d="M30.4096 42.7858
L30.5306 42.7858
" />
<path d="M30.9539 43.5115
L31.0144 43.5720
" />
<path d="M31.0144 43.5720
L30.9539 43.6324
" />
<path d="M30.9539 43.6324
L30.8935 43.5720
" />
<path d="M30.8935 43.5720
L30.9539 43.5115
" />
<path d="M30.9539 43.5115
L30.9539 43.6324
" />
<path d="M30.9539 42.8462
L31.0144 42.9067
" />
<path d="M31.0144 42.9067
L30.9539 42.9672
" />
<path d="M30.9539 42.9672
L30.8935 42.9067
" />
<path d="M30.8935 42.9067
L30.9539 42.8462
" />
<path d="M30.9539 42.8462
L30.9539 42.9672
" />
<path d="M32.7682 42.3624
L32.8892 42.3624
" />
<path d="M32.8892 42.3624
L33.0101 42.4229
" />
<path d="M33.0101 42.4229
L33.0706 42.4834
" />
<path d="M33.0706 42.4834
L33.1311 42.6043
" />
<path d="M33.1311 42.6043
L33.1916 42.8462
" />
<path d="M33.1916 42.8462
L33.1916 43.1486
" />
<path d="M33.1916 43.1486
L33.1311 43.3905
" />
<path d="M33.1311 43.3905
L33.0706 43.5115
" />
<path d="M33.0706 43.5115
L33.0101 43.5720
" />
<path d="M33.0101 43.5720
L32.8892 43.6324
" />
<path d="M32.8892 43.6324
L32.7682 43.6324
" />
<path d="M32.7682 43.6324
L32.6473 43.5720
" />
<path d="M32.6473 43.5720
L32.5868 43.5115
" />
<path d="M32.5868 43.5115
L32.5263 43.3905
" />
<path d="M32.5263 43.3905
L32.4659 43.1486
" />
<path d="M32.4659 43.1486
L32.4659 42.8462
" />
<path d="M32.4659 42.8462
L32.5263 42.6043
" />
<path d="M32.5263 42.6043
L32.5868 42.4834
" />
<path d="M32.5868 42.4834
L32.6473 42.4229
" />
<path d="M32.6473 42.4229
L32.7682 42.3624
" />
</g><path style="fill:none; 
stroke:#840000; stroke-width:0.3810; stroke-opacity:1; 
stroke-linecap:round; stroke-linejoin:round;fill:none"
d="M 37.5920,29.4640
37.5920,26.4160
" /> 
<path style="fill:none; 
stroke:#840000; stroke-width:0.3810; stroke-opacity:1; 
stroke-linecap:round; stroke-linejoin:round;fill:none"
d="M 38.6080,29.4640
38.6080,26.4160
" /> 
<path style="fill:none; 
stroke:#840000; stroke-width:0.1524; stroke-opacity:1; 
stroke-linecap:round; stroke-linejoin:round;fill:none"
d="M 35.5600,27.9400
37.5920,27.9400
" /> 
<path style="fill:none; 
stroke:#840000; stroke-width:0.1524; stroke-opacity:1; 
stroke-linecap:round; stroke-linejoin:round;fill:none"
d="M 40.6400,27.9400
38.6080,27.9400
" /> 
</g>
<g style="fill:none; 
stroke:#840000; stroke-width:0.1524; stroke-opacity:1; 
stroke-linecap:round; stroke-linejoin:round;">
<g transform="rotate(-90.000000 36.4490 28.7020)">
<text x="36.4490" y="29.3370"
textLength="1.7756" font-size="1.6933" lengthAdjust="spacingAndGlyphs"
text-anchor="middle" opacity="0" stroke-opacity="0">+</text>
</g>
<g class="stroked-text"><desc>+</desc>
<path d="M36.5447 29.1858
L36.5447 28.2182
" />
<path d="M37.0285 28.7020
L36.0609 28.7020
" />
</g><path d="M35.5600 27.9400
L33.0200 27.9400
" />
<path d="M40.6400 27.9400
L43.1800 27.9400
" />
</g>
<g style="fill:none; 
stroke:#006464; stroke-width:0.1524; stroke-opacity:1; 
stroke-linecap:round; stroke-linejoin:round;">
<text x="38.0336" y="19.6849"
textLength="2.6827" font-size="1.6933" lengthAdjust="spacingAndGlyphs"
text-anchor="middle" opacity="0" stroke-opacity="0">C5</text>
<g class="stroked-text"><desc>C5</desc>
<path d="M37.8219 19.5085
L37.7615 19.5690
" />
<path d="M37.7615 19.5690
L37.5800 19.6294
" />
<path d="M37.5800 19.6294
L37.4591 19.6294
" />
<path d="M37.4591 19.6294
L37.2777 19.5690
" />
<path d="M37.2777 19.5690
L37.1567 19.4480
" />
<path d="M37.1567 19.4480
L37.0962 19.3270
" />
<path d="M37.0962 19.3270
L37.0358 19.0851
" />
<path d="M37.0358 19.0851
L37.0358 18.9037
" />
<path d="M37.0358 18.9037
L37.0962 18.6618
" />
<path d="M37.0962 18.6618
L37.1567 18.5409
" />
<path d="M37.1567 18.5409
L37.2777 18.4199
" />
<path d="M37.2777 18.4199
L37.4591 18.3594
" />
<path d="M37.4591 18.3594
L37.5800 18.3594
" />
<path d="M37.5800 18.3594
L37.7615 18.4199
" />
<path d="M37.7615 18.4199
L37.8219 18.4804
" />
<path d="M38.9710 18.3594
L38.3662 18.3594
" />
<path d="M38.3662 18.3594
L38.3058 18.9642
" />
<path d="M38.3058 18.9642
L38.3662 18.9037
" />
<path d="M38.3662 18.9037
L38.4872 18.8432
" />
<path d="M38.4872 18.8432
L38.7896 18.8432
" />
<path d="M38.7896 18.8432
L38.9105 18.9037
" />
<path d="M38.9105 18.9037
L38.9710 18.9642
" />
<path d="M38.9710 18.9642
L39.0315 19.0851
" />
<path d="M39.0315 19.0851
L39.0315 19.3875
" />
<path d="M39.0315 19.3875
L38.9710 19.5085
" />
<path d="M38.9710 19.5085
L38.9105 19.5690
" />
<path d="M38.9105 19.5690
L38.7896 19.6294
" />
<path d="M38.7896 19.6294
L38.4872 19.6294
" />
<path d="M38.4872 19.6294
L38.3662 19.5690
" />
<path d="M38.3662 19.5690
L38.3058 19.5085
" />
</g><text x="38.0336" y="22.2249"
textLength="11.8751" font-size="1.6933" lengthAdjust="spacingAndGlyphs"
text-anchor="middle" opacity="0" stroke-opacity="0">Value: {C_s}</text>
<g class="stroked-text"><desc>Value: {C_s}</desc>
<path d="M32.3186 20.8994
L32.7419 22.1694
" />
<path d="M32.7419 22.1694
L33.1653 20.8994
" />
<path d="M34.1329 22.1694
L34.1329 21.5042
" />
<path d="M34.1329 21.5042
L34.0724 21.3832
" />
<path d="M34.0724 21.3832
L33.9515 21.3228
" />
<path d="M33.9515 21.3228
L33.7096 21.3228
" />
<path d="M33.7096 21.3228
L33.5886 21.3832
" />
<path d="M34.1329 22.1090
L34.0120 22.1694
" />
<path d="M34.0120 22.1694
L33.7096 22.1694
" />
<path d="M33.7096 22.1694
L33.5886 22.1090
" />
<path d="M33.5886 22.1090
L33.5282 21.9880
" />
<path d="M33.5282 21.9880
L33.5282 21.8670
" />
<path d="M33.5282 21.8670
L33.5886 21.7461
" />
<path d="M33.5886 21.7461
L33.7096 21.6856
" />
<path d="M33.7096 21.6856
L34.0120 21.6856
" />
<path d="M34.0120 21.6856
L34.1329 21.6251
" />
<path d="M34.9191 22.1694
L34.7981 22.1090
" />
<path d="M34.7981 22.1090
L34.7376 21.9880
" />
<path d="M34.7376 21.9880
L34.7376 20.8994
" />
<path d="M35.9471 21.3228
L35.9471 22.1694
" />
<path d="M35.4028 21.3228
L35.4028 21.9880
" />
<path d="M35.4028 21.9880
L35.4633 22.1090
" />
<path d="M35.4633 22.1090
L35.5843 22.1694
" />
<path d="M35.5843 22.1694
L35.7657 22.1694
" />
<path d="M35.7657 22.1694
L35.8866 22.1090
" />
<path d="M35.8866 22.1090
L35.9471 22.0485
" />
<path d="M37.0356 22.1090
L36.9147 22.1694
" />
<path d="M36.9147 22.1694
L36.6728 22.1694
" />
<path d="M36.6728 22.1694
L36.5518 22.1090
" />
<path d="M36.5518 22.1090
L36.4914 21.9880
" />
<path d="M36.4914 21.9880
L36.4914 21.5042
" />
<path d="M36.4914 21.5042
L36.5518 21.3832
" />
<path d="M36.5518 21.3832
L36.6728 21.3228
" />
<path d="M36.6728 21.3228
L36.9147 21.3228
" />
<path d="M36.9147 21.3228
L37.0356 21.3832
" />
<path d="M37.0356 21.3832
L37.0961 21.5042
" />
<path d="M37.0961 21.5042
L37.0961 21.6251
" />
<path d="M37.0961 21.6251
L36.4914 21.7461
" />
<path d="M37.6404 22.0485
L37.7009 22.1090
" />
<path d="M37.7009 22.1090
L37.6404 22.1694
" />
<path d="M37.6404 22.1694
L37.5800 22.1090
" />
<path d="M37.5800 22.1090
L37.6404 22.0485
" />
<path d="M37.6404 22.0485
L37.6404 22.1694
" />
<path d="M37.6404 21.3832
L37.7009 21.4437
" />
<path d="M37.7009 21.4437
L37.6404 21.5042
" />
<path d="M37.6404 21.5042
L37.5800 21.4437
" />
<path d="M37.5800 21.4437
L37.6404 21.3832
" />
<path d="M37.6404 21.3832
L37.6404 21.5042
" />
<path d="M39.5757 22.6532
L39.5152 22.6532
" />
<path d="M39.5152 22.6532
L39.3943 22.5928
" />
<path d="M39.3943 22.5928
L39.3338 22.4718
" />
<path d="M39.3338 22.4718
L39.3338 21.8670
" />
<path d="M39.3338 21.8670
L39.2733 21.7461
" />
<path d="M39.2733 21.7461
L39.1524 21.6856
" />
<path d="M39.1524 21.6856
L39.2733 21.6251
" />
<path d="M39.2733 21.6251
L39.3338 21.5042
" />
<path d="M39.3338 21.5042
L39.3338 20.8994
" />
<path d="M39.3338 20.8994
L39.3943 20.7785
" />
<path d="M39.3943 20.7785
L39.5152 20.7180
" />
<path d="M39.5152 20.7180
L39.5757 20.7180
" />
<path d="M40.7852 22.0485
L40.7248 22.1090
" />
<path d="M40.7248 22.1090
L40.5433 22.1694
" />
<path d="M40.5433 22.1694
L40.4224 22.1694
" />
<path d="M40.4224 22.1694
L40.2410 22.1090
" />
<path d="M40.2410 22.1090
L40.1200 21.9880
" />
<path d="M40.1200 21.9880
L40.0595 21.8670
" />
<path d="M40.0595 21.8670
L39.9991 21.6251
" />
<path d="M39.9991 21.6251
L39.9991 21.4437
" />
<path d="M39.9991 21.4437
L40.0595 21.2018
" />
<path d="M40.0595 21.2018
L40.1200 21.0809
" />
<path d="M40.1200 21.0809
L40.2410 20.9599
" />
<path d="M40.2410 20.9599
L40.4224 20.8994
" />
<path d="M40.4224 20.8994
L40.5433 20.8994
" />
<path d="M40.5433 20.8994
L40.7248 20.9599
" />
<path d="M40.7248 20.9599
L40.7852 21.0204
" />
<path d="M41.0272 22.2904
L41.9948 22.2904
" />
<path d="M42.2367 22.1090
L42.3576 22.1694
" />
<path d="M42.3576 22.1694
L42.5995 22.1694
" />
<path d="M42.5995 22.1694
L42.7205 22.1090
" />
<path d="M42.7205 22.1090
L42.7809 21.9880
" />
<path d="M42.7809 21.9880
L42.7809 21.9275
" />
<path d="M42.7809 21.9275
L42.7205 21.8066
" />
<path d="M42.7205 21.8066
L42.5995 21.7461
" />
<path d="M42.5995 21.7461
L42.4181 21.7461
" />
<path d="M42.4181 21.7461
L42.2971 21.6856
" />
<path d="M42.2971 21.6856
L42.2367 21.5647
" />
<path d="M42.2367 21.5647
L42.2367 21.5042
" />
<path d="M42.2367 21.5042
L42.2971 21.3832
" />
<path d="M42.2971 21.3832
L42.4181 21.3228
" />
<path d="M42.4181 21.3228
L42.5995 21.3228
" />
<path d="M42.5995 21.3228
L42.7205 21.3832
" />
<path d="M43.2043 22.6532
L43.2648 22.6532
" />
<path d="M43.2648 22.6532
L43.3857 22.5928
" />
<path d="M43.3857 22.5928
L43.4462 22.4718
" />
<path d="M43.4462 22.4718
L43.4462 21.8670
" />
<path d="M43.4462 21.8670
L43.5067 21.7461
" />
<path d="M43.5067 21.7461
L43.6276 21.6856
" />
<path d="M43.6276 21.6856
L43.5067 21.6251
" />
<path d="M43.5067 21.6251
L43.4462 21.5042
" />
<path d="M43.4462 21.5042
L43.4462 20.8994
" />
<path d="M43.4462 20.8994
L43.3857 20.7785
" />
<path d="M43.3857 20.7785
L43.2648 20.7180
" />
<path d="M43.2648 20.7180
L43.2043 20.7180
" />
</g></g>
<g style="fill:none; 
stroke:#840084; stroke-width:0.1524; stroke-opacity:1; 
stroke-linecap:round; stroke-linejoin:round;">
<text x="38.0337" y="24.7649"
textLength="7.0370" font-size="1.6933" lengthAdjust="spacingAndGlyphs"
text-anchor="middle" opacity="0" stroke-opacity="0">vinit: 0</text>
<g class="stroked-text"><desc>vinit: 0</desc>
<path d="M34.7982 23.8628
L35.1006 24.7094
" />
<path d="M35.1006 24.7094
L35.4029 23.8628
" />
<path d="M35.8867 24.7094
L35.8867 23.8628
" />
<path d="M35.8867 23.4394
L35.8263 23.4999
" />
<path d="M35.8263 23.4999
L35.8867 23.5604
" />
<path d="M35.8867 23.5604
L35.9472 23.4999
" />
<path d="M35.9472 23.4999
L35.8867 23.4394
" />
<path d="M35.8867 23.4394
L35.8867 23.5604
" />
<path d="M36.4915 23.8628
L36.4915 24.7094
" />
<path d="M36.4915 23.9837
L36.5520 23.9232
" />
<path d="M36.5520 23.9232
L36.6730 23.8628
" />
<path d="M36.6730 23.8628
L36.8544 23.8628
" />
<path d="M36.8544 23.8628
L36.9753 23.9232
" />
<path d="M36.9753 23.9232
L37.0358 24.0442
" />
<path d="M37.0358 24.0442
L37.0358 24.7094
" />
<path d="M37.6405 24.7094
L37.6405 23.8628
" />
<path d="M37.6405 23.4394
L37.5801 23.4999
" />
<path d="M37.5801 23.4999
L37.6405 23.5604
" />
<path d="M37.6405 23.5604
L37.7010 23.4999
" />
<path d="M37.7010 23.4999
L37.6405 23.4394
" />
<path d="M37.6405 23.4394
L37.6405 23.5604
" />
<path d="M38.0639 23.8628
L38.5477 23.8628
" />
<path d="M38.2453 23.4394
L38.2453 24.5280
" />
<path d="M38.2453 24.5280
L38.3058 24.6490
" />
<path d="M38.3058 24.6490
L38.4268 24.7094
" />
<path d="M38.4268 24.7094
L38.5477 24.7094
" />
<path d="M38.9710 24.5885
L39.0315 24.6490
" />
<path d="M39.0315 24.6490
L38.9710 24.7094
" />
<path d="M38.9710 24.7094
L38.9106 24.6490
" />
<path d="M38.9106 24.6490
L38.9710 24.5885
" />
<path d="M38.9710 24.5885
L38.9710 24.7094
" />
<path d="M38.9710 23.9232
L39.0315 23.9837
" />
<path d="M39.0315 23.9837
L38.9710 24.0442
" />
<path d="M38.9710 24.0442
L38.9106 23.9837
" />
<path d="M38.9106 23.9837
L38.9710 23.9232
" />
<path d="M38.9710 23.9232
L38.9710 24.0442
" />
<path d="M40.7853 23.4394
L40.9063 23.4394
" />
<path d="M40.9063 23.4394
L41.0272 23.4999
" />
<path d="M41.0272 23.4999
L41.0877 23.5604
" />
<path d="M41.0877 23.5604
L41.1482 23.6813
" />
<path d="M41.1482 23.6813
L41.2087 23.9232
" />
<path d="M41.2087 23.9232
L41.2087 24.2256
" />
<path d="M41.2087 24.2256
L41.1482 24.4675
" />
<path d="M41.1482 24.4675
L41.0877 24.5885
" />
<path d="M41.0877 24.5885
L41.0272 24.6490
" />
<path d="M41.0272 24.6490
L40.9063 24.7094
" />
<path d="M40.9063 24.7094
L40.7853 24.7094
" />
<path d="M40.7853 24.7094
L40.6644 24.6490
" />
<path d="M40.6644 24.6490
L40.6039 24.5885
" />
<path d="M40.6039 24.5885
L40.5434 24.4675
" />
<path d="M40.5434 24.4675
L40.4830 24.2256
" />
<path d="M40.4830 24.2256
L40.4830 23.9232
" />
<path d="M40.4830 23.9232
L40.5434 23.6813
" />
<path d="M40.5434 23.6813
L40.6039 23.5604
" />
<path d="M40.6039 23.5604
L40.6644 23.4999
" />
<path d="M40.6644 23.4999
L40.7853 23.4394
" />
</g></g>
<g style="fill:none; 
stroke:#009600; stroke-width:0.1524; stroke-opacity:1; 
stroke-linecap:round; stroke-linejoin:round;">
<path d="M77.4700 33.0200
L88.9000 33.0200
" />
<path d="M45.7200 43.1800
L62.2300 43.1800
" />
<path d="M77.4700 43.1800
L88.9000 43.1800
" />
<path d="M62.2300 33.0200
L45.7200 33.0200
" />
<path d="M21.5900 43.1800
L21.5900 48.2600
" />
<path d="M45.7200 43.1800
L45.7200 48.2600
" />
<path d="M21.5900 48.2600
L45.7200 48.2600
" />
<path d="M21.5900 27.9400
L33.0200 27.9400
" />
<path d="M45.7200 27.9400
L45.7200 33.0200
" />
<path d="M45.7200 27.9400
L43.1800 27.9400
" />
<path d="M21.5900 33.0200
L21.5900 27.9400
" />
</g>
<g style="fill:#009600; fill-opacity:1.0000; 
stroke:#009600; stroke-width:0.1524; stroke-opacity:1; 
stroke-linecap:round; stroke-linejoin:round;">
<circle cx="45.7200" cy="43.1800" r="0.4572" /> 
<circle cx="45.7200" cy="33.0200" r="0.4572" /> 
</g> 
</svg>
